<?xml version="1.0" encoding="utf-8"?>
<!-- Generator: Adobe Illustrator 24.3.0, SVG Export Plug-In . SVG Version: 6.00 Build 0)  -->
<svg version="1.1" id="Capa_1" xmlns="http://www.w3.org/2000/svg" xmlns:xlink="http://www.w3.org/1999/xlink" x="0px" y="0px"
	 viewBox="0 0 104.8 93" style="enable-background:new 0 0 104.8 93;" xml:space="preserve">
<style type="text/css">
	.st0{fill:#FF7502;}
</style>
<g id="alert" transform="translate(0 -19.066)">
	<g id="Grupo_3361" transform="translate(0 19.066)">
		<g id="Grupo_3360" transform="translate(0 0)">
			<path id="Trazado_1821" class="st0" d="M103.2,79.5L60.1,5.3C58.1,2,55.3,0,52.3,0c-3.1,0-5.9,2-7.8,5.3L1.7,79.5
				c-2,3.3-2.2,6.8-0.6,9.4C2.5,91.5,5.6,93,9.6,93h85.7c3.8,0,6.9-1.5,8.5-4.1C105.3,86.3,105.1,82.8,103.2,79.5z M99.1,86.3
				c-0.6,1-2,1.5-4,1.5H9.5c-2,0-3.5-0.6-4-1.5c-0.6-1-0.4-2.5,0.6-4.2L49,7.9c1-1.7,2.2-2.7,3.3-2.7s2.4,1,3.3,2.7l42.8,74.2
				C99.5,83.8,99.7,85.3,99.1,86.3z"/>
		</g>
	</g>
	<g id="Grupo_3363" transform="translate(49.718 43.459)">
		<g id="Grupo_3362" transform="translate(0 0)">
			<path id="Trazado_1822" class="st0" d="M2.6,0C1.2,0,0,1.1,0,2.5c0,0,0,0.1,0,0.1V37c0,1.4,1.2,2.6,2.6,2.6
				c1.4,0,2.6-1.2,2.6-2.6V2.6C5.2,1.2,4.1,0,2.7,0C2.7,0,2.6,0,2.6,0z"/>
		</g>
	</g>
	<g id="Grupo_3365" transform="translate(47.737 88.901)">
		<g id="Grupo_3364">
			<circle id="Elipse_85" class="st0" cx="4.6" cy="4.6" r="4.6"/>
		</g>
	</g>
</g>
</svg>
