<svg id="w6XrD2_1_" xmlns="http://www.w3.org/2000/svg" viewBox="0 0 12.918 13.5">
  <defs>
    <style>
      .cls-1 {
        fill: #353435;
      }
    </style>
  </defs>
  <g id="Group_300" data-name="Group 300">
    <g id="Group_299" data-name="Group 299">
      <path id="Path_1802" data-name="Path 1802" class="cls-1" d="M5.8,13.5c-.3,0-.6-.1-.9-.1A6.686,6.686,0,0,1,3,12.9a1.1,1.1,0,0,1-.3-1.7A4.072,4.072,0,0,1,4.4,10c.2-.1.5-.2.7-.3a.582.582,0,0,0,.2-1,3.724,3.724,0,0,1-.9-3.2A2.228,2.228,0,0,1,6.8,3.8a2.059,2.059,0,0,1,2,1.9,4.124,4.124,0,0,1-.9,3,.6.6,0,0,0,.3,1,5.488,5.488,0,0,1,2.1,1.2,1.31,1.31,0,0,1,.4,1.3c0,.3-.3.5-.5.7a6.07,6.07,0,0,1-1.8.5c-.3,0-.6.1-.9.1Z"/>
      <path id="Path_1803" data-name="Path 1803" class="cls-1" d="M7.4,0c.3.1.6.1.9.2a6.19,6.19,0,0,1,4.6,5.6,5.759,5.759,0,0,1-1,3.8.55.55,0,0,1-.5.3c-.2,0-.4-.1-.4-.3a.661.661,0,0,1,.1-.6,5.838,5.838,0,0,0,.8-2.2,5.26,5.26,0,0,0-1.3-4A5.1,5.1,0,0,0,6.5,1.1,4.637,4.637,0,0,0,2.2,3.7a4.86,4.86,0,0,0-.5,4.1L2,7.5a.365.365,0,0,1,.5-.2.55.55,0,0,1,.3.5V10c0,.4-.4.5-.7.3a13.029,13.029,0,0,1-1.5-1,.52.52,0,0,1-.4-.2C0,9,0,8.8,0,8.6s.2-.3.4-.3H.7A15.17,15.17,0,0,1,.4,6.2,6.129,6.129,0,0,1,5.5.1c.1,0,.2-.1.3-.1Z"/>
    </g>
  </g>
</svg>
