<svg xmlns="http://www.w3.org/2000/svg" width="259.883" height="205.191" viewBox="0 0 259.883 205.191">
  <g id="cloud-computing" transform="translate(0 -53.873)" opacity="0.38">
    <g id="Grupo_2457" data-name="Grupo 2457" transform="translate(0 53.873)">
      <g id="Grupo_2456" data-name="Grupo 2456">
        <path id="Trazado_1981" data-name="Trazado 1981" d="M206.061,125.563A72.663,72.663,0,0,0,62.287,111.63c-.234,0-.466,0-.7,0a61.589,61.589,0,1,0,0,123.179H104.6a5.542,5.542,0,1,0,0-11.085H61.59a50.5,50.5,0,1,1,0-101.01c1.484,0,3.052.08,4.8.244a5.546,5.546,0,0,0,6.011-4.769,61.578,61.578,0,0,1,122.587,8.388c0,1.223-.091,2.484-.187,3.819l-.041.567a5.543,5.543,0,0,0,6.083,5.905,44.214,44.214,0,0,1,4.42-.223,43.539,43.539,0,1,1,0,87.078H160.027a5.542,5.542,0,0,0,0,11.085h45.231a54.623,54.623,0,0,0,.8-109.24Z" transform="translate(0 -53.873)"/>
      </g>
    </g>
    <g id="Grupo_2459" data-name="Grupo 2459" transform="translate(87.172 79.922)">
      <g id="Grupo_2458" data-name="Grupo 2458">
        <path id="Trazado_1982" data-name="Trazado 1982" d="M217.937,105.192a46.75,46.75,0,0,0-46.146,40.285,5.543,5.543,0,0,0,4.742,6.241,5.615,5.615,0,0,0,.756.052,5.542,5.542,0,0,0,5.484-4.794,35.624,35.624,0,0,1,35.164-30.7,5.542,5.542,0,0,0,0-11.085Z" transform="translate(-171.74 -105.192)"/>
      </g>
    </g>
    <g id="Grupo_2461" data-name="Grupo 2461" transform="translate(104.208 168.642)">
      <g id="Grupo_2460" data-name="Grupo 2460" transform="translate(0 0)">
        <path id="Trazado_1983" data-name="Trazado 1983" d="M259.668,300.321l-20.16-18.009a9.146,9.146,0,0,0-12.2,0l-20.16,18.01a5.543,5.543,0,1,0,7.385,8.267l13.331-11.909v68.184a5.542,5.542,0,0,0,11.085,0V296.678l13.332,11.909a5.542,5.542,0,1,0,7.384-8.267Z" transform="translate(-205.302 -279.982)"/>
      </g>
    </g>
  </g>
</svg>
