<svg xmlns="http://www.w3.org/2000/svg" viewBox="0 0 39.89 48.97"><defs><style>.cls-1{opacity:0.57;isolation:isolate;}</style></defs><title>company</title><g id="Capa_2" data-name="Capa 2"><g id="Capa_1-2" data-name="Capa 1"><path id="company" class="cls-1" d="M38.27,45.81H35.15V7.11a1.58,1.58,0,0,0-1.58-1.58H21.72V1.58A1.58,1.58,0,0,0,20.14,0h-11A1.58,1.58,0,0,0,7.6,1.58h0v4H6.32A1.58,1.58,0,0,0,4.74,7.11h0v38.7H1.63A1.62,1.62,0,0,0,0,47.32,1.58,1.58,0,0,0,1.5,49H12.84a.79.79,0,0,0,.79-.79h0V39.1H13a1.61,1.61,0,0,1-1.62-1.5A1.58,1.58,0,0,1,12.86,36H26.91a1.61,1.61,0,0,1,1.63,1.5A1.58,1.58,0,0,1,27,39.1h-.76v9.08a.79.79,0,0,0,.79.79H38.31a1.57,1.57,0,0,0,1.58-1.57v-.08A1.61,1.61,0,0,0,38.27,45.81ZM16.1,32.68H14.32a1.58,1.58,0,0,1,0-3.16H16.1a1.58,1.58,0,0,1,0,3.16Zm0-5.92H14.32a1.58,1.58,0,1,1,0-3.16H16.1a1.58,1.58,0,0,1,0,3.16Zm0-5.93H14.32a1.58,1.58,0,0,1,0-3.16H16.1a1.58,1.58,0,0,1,0,3.16Zm0-5.92H14.32a1.58,1.58,0,0,1,0-3.16H16.1a1.58,1.58,0,0,1,0,3.16Zm9.38,17.77H23.7a1.58,1.58,0,1,1,0-3.16h1.78a1.58,1.58,0,0,1,0,3.16Zm0-5.92H23.7a1.58,1.58,0,1,1,0-3.16h1.78a1.58,1.58,0,0,1,0,3.16Zm0-5.92H23.7a1.58,1.58,0,0,1,0-3.16h1.78a1.57,1.57,0,0,1,1.58,1.57,1.59,1.59,0,0,1-1.58,1.59Zm0-5.93H23.7a1.58,1.58,0,1,1,0-3.16h1.78a1.58,1.58,0,0,1,0,3.16ZM16.79,48.18V39.89a.79.79,0,0,1,.79-.79h4.74a.79.79,0,0,1,.79.79h0v8.29a.79.79,0,0,1-.79.79H17.58a.79.79,0,0,1-.79-.79Z"/></g></g></svg>