<?xml version="1.0" encoding="utf-8"?>
<!-- Generator: Adobe Illustrator 22.0.1, SVG Export Plug-In . SVG Version: 6.00 Build 0)  -->
<svg version="1.1" id="Capa_1" xmlns="http://www.w3.org/2000/svg" xmlns:xlink="http://www.w3.org/1999/xlink" x="0px" y="0px"
	 viewBox="0 0 92.5 105.1" style="enable-background:new 0 0 92.5 105.1;" xml:space="preserve">
<style type="text/css">
	.st0{fill:#FFC900;}
</style>
<g>
	<path class="st0" d="M75.8,0.5H0v94.4h39.4l-0.1-0.8c-0.2-1.3-0.2-2.4-0.2-3.6l0-0.8H18.6V55.1h53.5v7.8l0.6,0.1
		c1.2,0.2,2.5,0.6,3.7,1l1,0.4V49.8H13.3v39.8h-8V5.8h11.8v30.3h54.6V5.8h1.9l13.6,13.6l0,51.6l0.2,0.2c1.4,1.5,2.7,3.1,3.7,4.9
		l1.4,2.3V17.2L75.8,0.5z M22.4,30.9v-25h44v25H22.4z"/>
	<path class="st0" d="M25.4,64.6l13.2,0c0.1,0,0.1,0,0.2,0c1.4,0,2.6-1.1,2.6-2.5c0.1-1.5-1-2.7-2.5-2.8c-0.1,0-0.2,0-0.3,0l-13.2,0
		c-0.7,0-1.4,0.2-1.9,0.7c-0.5,0.5-0.9,1.1-0.9,1.8c-0.1,1.5,1,2.7,2.5,2.8C25.2,64.6,25.3,64.6,25.4,64.6z"/>
	<path class="st0" d="M44.7,66.9c-0.1,0-0.2,0-0.3,0l-18.9,0c-0.7,0-1.4,0.2-1.9,0.7c-0.5,0.5-0.9,1.1-0.9,1.8
		c-0.1,1.5,1,2.7,2.5,2.8c0.1,0,0.2,0,0.3,0l18.9,0c0.1,0,0.1,0,0.2,0c1.4,0,2.6-1.1,2.6-2.5c0-0.7-0.2-1.4-0.7-1.9
		C46,67.2,45.4,66.9,44.7,66.9z"/>
	<path class="st0" d="M51.2,28.6h12.9V8.1H51.2V28.6z M58.8,13.4v9.9h-2.3v-9.9H58.8z"/>
	<path class="st0" d="M85.2,78.3c-1.2-1.2-3.3-1.2-4.5,0L62.1,96.9l-9.4-9.4c-0.6-0.6-1.4-0.9-2.3-0.9c-0.8,0-1.6,0.3-2.2,1
		c-1.2,1.2-1.2,3.2,0,4.5l11.7,11.7c0.6,0.6,1.4,0.9,2.2,0.9s1.6-0.3,2.2-0.9l20.8-20.8c0.6-0.6,0.9-1.4,0.9-2.2
		C86.1,79.8,85.8,79,85.2,78.3L85.2,78.3z"/>
</g>
</svg>
