<svg id="process" xmlns="http://www.w3.org/2000/svg" width="275" height="275" viewBox="0 0 275 275">
  <path id="Trazado_2311" data-name="Trazado 2311" d="M396.194,350.845v-33.5l-12.832-3.279c-.089-.217-.178-.433-.271-.648l6.755-11.385-23.689-23.689L354.771,285.1c-.219-.093-.435-.182-.648-.271L350.845,272h-33.5l-3.279,12.832c-.217.089-.433.178-.648.271l-11.385-6.755-23.689,23.689,6.755,11.385c-.093.219-.182.435-.271.648L272,317.349v33.5l12.832,3.279c.089.217.178.433.271.648l-6.755,11.385,23.689,23.689,11.385-6.755c.219.093.435.182.648.271l3.279,12.828h33.5l3.279-12.832c.217-.089.433-.178.648-.271l11.385,6.755,23.689-23.689L383.1,354.771c.093-.219.182-.435.271-.648ZM378.705,364.76,364.76,378.705l-9.48-5.624-2.133,1.02a44.387,44.387,0,0,1-4.228,1.752l-2.235.793-2.722,10.677H324.236l-2.722-10.677-2.235-.793a41.817,41.817,0,0,1-4.228-1.752l-2.133-1.02-9.48,5.624L289.493,364.76l5.625-9.48-1.02-2.133a44.378,44.378,0,0,1-1.752-4.228l-.793-2.235-10.682-2.722V324.236l10.677-2.722.793-2.235a41.81,41.81,0,0,1,1.752-4.228l1.02-2.133-5.624-9.48,13.945-13.945,9.48,5.625,2.133-1.02a44.376,44.376,0,0,1,4.228-1.752l2.235-.793,2.722-10.682h19.726l2.722,10.677,2.235.793a41.812,41.812,0,0,1,4.228,1.752l2.133,1.02,9.48-5.624L378.7,303.434l-5.625,9.48,1.02,2.133a44.376,44.376,0,0,1,1.752,4.228l.793,2.235,10.682,2.722v19.726l-10.677,2.722-.793,2.235a41.819,41.819,0,0,1-1.752,4.228l-1.02,2.133Zm0,0" transform="translate(-121.194 -121.194)" fill="#fbfbfc"/>
  <path id="Trazado_2312" data-name="Trazado 2312" d="M355.484,320a35.484,35.484,0,1,0,35.484,35.484A35.525,35.525,0,0,0,355.484,320Zm0,62.1A26.613,26.613,0,1,1,382.1,355.484,26.639,26.639,0,0,1,355.484,382.1Zm0,0" transform="translate(-142.581 -142.581)" fill="#fbfbfc"/>
  <path id="Trazado_2313" data-name="Trazado 2313" d="M369.742,352a17.742,17.742,0,1,0,17.742,17.742A17.759,17.759,0,0,0,369.742,352Zm0,26.613a8.871,8.871,0,1,1,8.871-8.871A8.88,8.88,0,0,1,369.742,378.613Zm0,0" transform="translate(-156.839 -156.839)" fill="#fbfbfc"/>
  <path id="Trazado_2314" data-name="Trazado 2314" d="M180.055,75.1a26.657,26.657,0,0,0,7.429,11.212v3.762l-21.09,7.907A22.274,22.274,0,0,0,152,118.747v23.189H258.452V118.747a22.287,22.287,0,0,0-14.389-20.768l-21.095-7.907V86.314A26.6,26.6,0,0,0,230.4,75.1a17.736,17.736,0,0,0,14.749-17.441V39.919a39.919,39.919,0,1,0-79.839,0V57.661A17.736,17.736,0,0,0,180.055,75.1ZM214.1,91.917,205.226,106.7l-8.871-14.784v-.325a26.115,26.115,0,0,0,17.742,0ZM190.016,98.6l8.942,14.9-8.884,4.44-5.739-17.209Zm59.565,20.15v14.318h-88.71V118.747a13.367,13.367,0,0,1,8.635-12.46l6.521-2.443,8.867,26.6,20.332-10.166,20.332,10.166,8.867-26.6,6.525,2.447A13.359,13.359,0,0,1,249.581,118.747Zm-23.464-18.021-5.739,17.213-8.884-4.44,8.942-14.9ZM205.226,84.274a17.759,17.759,0,0,1-17.742-17.742V48.489a34.335,34.335,0,0,0,17.742-7.08,34.3,34.3,0,0,0,17.742,7.08V66.532A17.759,17.759,0,0,1,205.226,84.274ZM231.839,65.3V50.027a8.792,8.792,0,0,1,0,15.273ZM205.226,8.871a31.086,31.086,0,0,1,31.048,31.048v2.467a17.548,17.548,0,0,0-8.871-2.467h-.762a25.668,25.668,0,0,1-18.279-7.572l-3.136-3.14-3.136,3.14a25.675,25.675,0,0,1-18.279,7.572h-.762a17.548,17.548,0,0,0-8.871,2.467V39.919A31.086,31.086,0,0,1,205.226,8.871ZM178.613,50.023V65.3a8.792,8.792,0,0,1,0-15.273Zm0,0" transform="translate(-67.726)" fill="#fbfbfc"/>
  <path id="Trazado_2315" data-name="Trazado 2315" d="M0,403.323H88.71V288H0ZM8.871,296.871H79.839v97.581H8.871Zm0,0" transform="translate(0 -128.323)" fill="#fbfbfc"/>
  <path id="Trazado_2316" data-name="Trazado 2316" d="M32,320H85.226v8.871H32Zm0,0" transform="translate(-14.258 -142.581)" fill="#fbfbfc"/>
  <path id="Trazado_2317" data-name="Trazado 2317" d="M32,352h8.871v8.871H32Zm0,0" transform="translate(-14.258 -156.839)" fill="#fbfbfc"/>
  <path id="Trazado_2318" data-name="Trazado 2318" d="M64,352H99.484v8.871H64Zm0,0" transform="translate(-28.516 -156.839)" fill="#fbfbfc"/>
  <path id="Trazado_2319" data-name="Trazado 2319" d="M32,384H85.226v8.871H32Zm0,0" transform="translate(-14.258 -171.097)" fill="#fbfbfc"/>
  <path id="Trazado_2320" data-name="Trazado 2320" d="M32,416H85.226v8.871H32Zm0,0" transform="translate(-14.258 -185.355)" fill="#fbfbfc"/>
  <path id="Trazado_2321" data-name="Trazado 2321" d="M112,448h8.871v8.871H112Zm0,0" transform="translate(-49.903 -199.613)" fill="#fbfbfc"/>
  <path id="Trazado_2322" data-name="Trazado 2322" d="M32,448H67.484v8.871H32Zm0,0" transform="translate(-14.258 -199.613)" fill="#fbfbfc"/>
  <path id="Trazado_2323" data-name="Trazado 2323" d="M191.838,352.616l-6.272-6.272-20.878,20.878L185.565,388.1l6.272-6.272-10.17-10.17h33.647v-8.871H181.667Zm0,0" transform="translate(-73.379 -154.318)" fill="#fbfbfc"/>
  <path id="Trazado_2324" data-name="Trazado 2324" d="M80.871,104.093a4.441,4.441,0,0,1,4.435-4.435h20.341l-10.17,10.17,6.272,6.272,20.878-20.878L101.749,74.344l-6.272,6.272,10.17,10.17H85.306A13.324,13.324,0,0,0,72,104.093v79.839h8.871Zm0,0" transform="translate(-32.081 -33.125)" fill="#fbfbfc"/>
  <path id="Trazado_2325" data-name="Trazado 2325" d="M362.613,117.306v55.825l-10.17-10.17-6.272,6.272,20.878,20.878,20.878-20.878-6.272-6.272-10.17,10.17V117.306A13.324,13.324,0,0,0,358.177,104H336v8.871h22.177A4.441,4.441,0,0,1,362.613,117.306Zm0,0" transform="translate(-149.71 -46.339)" fill="#fbfbfc"/>
</svg>
