<svg xmlns="http://www.w3.org/2000/svg" width="228.787" height="265.391" viewBox="0 0 228.787 265.391">
  <g id="vector" transform="translate(-0.5)">
    <path id="Trazado_2298" data-name="Trazado 2298" d="M388.787,171.2l-8.923,2.013a105.025,105.025,0,0,1,2.654,21.735l9.151-.136A113.4,113.4,0,0,0,388.787,171.2Zm0,0" transform="translate(-162.382 -73.28)" fill="#fefefe"/>
    <path id="Trazado_2299" data-name="Trazado 2299" d="M348.49,326.176l-7.549-5.215a104.877,104.877,0,0,1-14.277,16.565l6.269,6.68A116.834,116.834,0,0,0,348.49,326.176Zm0,0" transform="translate(-139.61 -137.383)" fill="#fefefe"/>
    <path id="Trazado_2300" data-name="Trazado 2300" d="M290.586,49.562a103.8,103.8,0,0,1,17.889,12.675l6.041-6.864a116.661,116.661,0,0,0-19.4-13.772Zm0,0" transform="translate(-124.168 -17.807)" fill="#fefefe"/>
    <path id="Trazado_2301" data-name="Trazado 2301" d="M85.117,43.359A117.36,117.36,0,0,0,65.945,57.453l6.178,6.772a103.307,103.307,0,0,1,17.615-12.95Zm0,0" transform="translate(-28.013 -18.559)" fill="#fefefe"/>
    <path id="Trazado_2302" data-name="Trazado 2302" d="M370.105,271.758l8.419,3.568a110.911,110.911,0,0,0,6.91-22.787l-8.968-1.738A104.577,104.577,0,0,1,370.105,271.758Zm0,0" transform="translate(-158.205 -107.352)" fill="#fefefe"/>
    <path id="Trazado_2303" data-name="Trazado 2303" d="M49.734,328.879l-7.23,5.628a119.293,119.293,0,0,0,16.473,17.159l5.948-7A105.537,105.537,0,0,1,49.734,328.879Zm0,0" transform="translate(-17.979 -140.773)" fill="#fefefe"/>
    <path id="Trazado_2304" data-name="Trazado 2304" d="M6.344,262.677a114.413,114.413,0,0,0,8.146,22.329l8.235-3.981a104.1,104.1,0,0,1-7.458-20.544Zm0,0" transform="translate(-2.501 -111.495)" fill="#fefefe"/>
    <path id="Trazado_2305" data-name="Trazado 2305" d="M9.7,202.048c-.047-1.236-.047-2.516-.047-3.751A108.555,108.555,0,0,1,11.9,176.517l-8.924-1.877A113.906,113.906,0,0,0,.5,198.3c0,1.372,0,2.746.092,4.073Zm0,0" transform="translate(-0.002 -74.753)" fill="#fefefe"/>
    <path id="Trazado_2306" data-name="Trazado 2306" d="M5.08,27.454h18.3a4.576,4.576,0,0,0,4.576-4.576V18.3h51.9l1.774,5.353A103.636,103.636,0,0,1,103,18.989l-.076-.686h4.931L55.806,135.414a4.575,4.575,0,0,0,2.138,5.948c9.314,4.663,20.347,23.455,20.347,34.675V192.83a18.215,18.215,0,0,0,0,35.305v32.68a4.576,4.576,0,0,0,4.576,4.576h64.06a4.576,4.576,0,0,0,4.576-4.576v-32.68a18.215,18.215,0,0,0,0-35.305V176.037c0-11.22,11.033-30.012,20.349-34.671a4.574,4.574,0,0,0,2.136-5.948L121.939,18.3h3.025l-.047.458a103.809,103.809,0,0,1,21.46,4.346l1.466-4.8h53.992v4.576a4.576,4.576,0,0,0,4.576,4.576h18.3a4.576,4.576,0,0,0,4.576-4.576V4.576A4.576,4.576,0,0,0,224.713,0h-18.3a4.576,4.576,0,0,0-4.576,4.576V9.151H27.958V4.576A4.576,4.576,0,0,0,23.382,0H5.08A4.576,4.576,0,0,0,.5,4.576v18.3A4.576,4.576,0,0,0,5.08,27.454ZM114.9,123.544a13.727,13.727,0,1,1,13.727-13.727A13.728,13.728,0,0,1,114.9,123.544Zm27.454,59.484v9.151H87.442v-9.151ZM87.442,256.239V228.785h54.908v27.454Zm68.636-45.757a9.152,9.152,0,0,1-9.151,9.151H83.984a4.626,4.626,0,0,0-1.117-.206,3.962,3.962,0,0,0-.641.141,9.151,9.151,0,0,1,.641-18.238h64.06A9.152,9.152,0,0,1,156.078,210.482Zm-13.635-36.606h-22.97V132.237a22.878,22.878,0,1,0-9.151,0v41.639H87.351A61.635,61.635,0,0,0,65.781,135.51L114.9,24.992,164.011,135.51A61.645,61.645,0,0,0,142.442,173.877ZM210.986,9.151h9.151V18.3h-9.151Zm-201.331,0h9.151V18.3H9.655Zm0,0" transform="translate(-0.002)" fill="#fefefe"/>
    <path id="Trazado_2307" data-name="Trazado 2307" d="M14.229,133.906a13.646,13.646,0,0,0,10.6-22.338c1.47-2.453,3.012-4.868,4.683-7.176L22.1,99.039c-1.83,2.471-3.479,5.065-5.074,7.7a13.727,13.727,0,1,0-2.8,27.166Zm0-18.3a4.576,4.576,0,1,1-4.576,4.576A4.576,4.576,0,0,1,14.229,115.6Zm0,0" transform="translate(0 -42.392)" fill="#fefefe"/>
    <path id="Trazado_2308" data-name="Trazado 2308" d="M364.245,105.22a13.829,13.829,0,0,0-2.842.3c-1.93-3.2-3.966-6.345-6.218-9.361l-7.322,5.492c2.078,2.791,3.968,5.715,5.767,8.693a13.574,13.574,0,0,0-3.112,8.6,13.727,13.727,0,1,0,13.727-13.727Zm0,18.3a4.576,4.576,0,1,1,4.576-4.576A4.576,4.576,0,0,1,364.245,123.523Zm0,0" transform="translate(-148.685 -41.16)" fill="#fefefe"/>
  </g>
</svg>
