<?xml version="1.0" encoding="utf-8"?>
<!-- Generator: Adobe Illustrator 22.0.1, SVG Export Plug-In . SVG Version: 6.00 Build 0)  -->
<svg version="1.1" id="Capa_1" xmlns="http://www.w3.org/2000/svg" xmlns:xlink="http://www.w3.org/1999/xlink" x="0px" y="0px"
	 viewBox="0 0 12.1 15.9" style="enable-background:new 0 0 12.1 15.9;" xml:space="preserve">
<style type="text/css">
	.st0{fill:#43413B;}
</style>
<g id="icoEliminar3" transform="translate(2)">
	<g id="Grupo_1370" transform="translate(-2)">
		<path id="Trazado_735" class="st0" d="M6,5.1c-0.3,0-0.5,0.2-0.5,0.5c0,0,0,0,0,0v7.2c0,0.3,0.2,0.5,0.5,0.6s0.5-0.2,0.6-0.5
			c0,0,0,0,0,0V5.6C6.6,5.3,6.3,5.1,6,5.1C6,5.1,6,5.1,6,5.1z"/>
		<path id="Trazado_736" class="st0" d="M3.6,5.1c-0.3,0-0.5,0.3-0.5,0.5l0.2,7.2c0,0.3,0.2,0.5,0.5,0.5s0.5-0.2,0.5-0.5
			c0,0,0,0,0,0L4.1,5.6C4.1,5.3,3.9,5.1,3.6,5.1z"/>
		<path id="Trazado_737" class="st0" d="M8.5,5.1C8.2,5.1,8,5.3,7.9,5.6l-0.2,7.2c0,0.3,0.2,0.5,0.5,0.5c0.3,0,0.5-0.2,0.5-0.5
			L9,5.6C9,5.3,8.8,5.1,8.5,5.1z"/>
		<path id="Trazado_738" class="st0" d="M12.1,3c0-0.4-0.3-0.7-0.7-0.7H8.9L8.7,1.4C8.4,0.6,7.7,0,6.9,0H5.2C4.4,0,3.6,0.6,3.4,1.4
			L3.2,2.2H0.7C0.3,2.2,0,2.6,0,3c0,0.3,0.2,0.6,0.5,0.7l0.4,10.7c0,0.9,0.7,1.6,1.6,1.6h7c0.9,0,1.6-0.7,1.6-1.6l0.4-10.7
			C11.9,3.6,12.1,3.3,12.1,3z M4.9,1.7C4.9,1.6,5,1.5,5.2,1.5h1.7c0.2,0,0.3,0.1,0.3,0.3l0.1,0.5H4.7L4.9,1.7z M9.5,14.4h-7
			c-0.1,0-0.1-0.1-0.1-0.1L2,3.7h8L9.7,14.3C9.7,14.3,9.6,14.4,9.5,14.4z"/>
	</g>
</g>
</svg>
