<svg xmlns="http://www.w3.org/2000/svg" viewBox="0 0 529.81 398.63"><defs><style>.cls-1{fill:#585858;}</style></defs><title>logoGrupoEKTBN_1</title><g id="Capa_2" data-name="Capa 2"><g id="Capa_1-2" data-name="Capa 1"><path class="cls-1" d="M77.15,338.37c-1.64,2.84-.55,7.22-.55,7.22a12.7,12.7,0,0,0-7.31-2.31,10.2,10.2,0,0,0-7.17,3.4,11.93,11.93,0,0,0-2.81,8v25.37H48.92V335.53H59.31v4.08a14.5,14.5,0,0,1,11.36-5.09A19.71,19.71,0,0,1,79,336.1,6.86,6.86,0,0,0,77.15,338.37Z"/><path class="cls-1" d="M177.94,357.75q0-10.23,5.91-16.68t15.62-6.43q10.2,0,15.84,6.18T221,357.75q0,10.71-5.74,17t-15.74,6.31q-10.2,0-15.87-6.37T177.94,357.75Zm10.87,0q0,14.81,10.66,14.8a9.16,9.16,0,0,0,7.75-3.84q2.86-3.85,2.86-11,0-14.58-10.61-14.58a9.23,9.23,0,0,0-7.78,3.84C189.77,349.57,188.81,353.16,188.81,357.75Z"/><path class="cls-1" d="M149.79,334.07a13.25,13.25,0,0,0-9.65,3.85v-2.45H129.69v52.15s0,1.74.12,2.66c.07.74.3,1.87.3,1.87q1.27,5.73,6.67,5.74,5.82,0,8.24-4.58-4.56-1.47-4.88-8.65v-6.11a20.33,20.33,0,0,0,9,2q10.23,0,16.15-5.94t5.92-16.93Q171.2,334.07,149.79,334.07Zm7.38,34.18q-3.15,3.44-10.39,3.44a10.25,10.25,0,0,1-6.64-2.29V345.86a9.21,9.21,0,0,1,6.69-2.93c4.82,0,8.27,1.09,10.36,3.24s3.14,5.89,3.14,11.19Q160.33,364.8,157.17,368.25Z"/><path class="cls-1" d="M122.26,366.69v-6.18h0v-25H111.8v30.77a9.31,9.31,0,0,1-4,4.26,12.56,12.56,0,0,1-6.61,1.84q-7.74,0-7.73-8.61V335.47s-5.52,0-7.59,1.59A7.43,7.43,0,0,0,83,342.64c0,.7,0,1.15,0,1.15v20.74q0,16.55,15.59,16.55a22.19,22.19,0,0,0,7.15-1.34,18.78,18.78,0,0,0,6.1-3.22l.6-.63c.94,3.45,3.11,5.19,6.53,5.19q5.82,0,8.24-4.57Q122.27,374.92,122.26,366.69Z"/><path class="cls-1" d="M0,358Q0,369,5.92,375t16.15,5.94a20.33,20.33,0,0,0,9-2,9.12,9.12,0,0,1,0,3.39c-.82,4.43-4.59,6.54-8.91,7a23,23,0,0,1-7.59-.24s-6.11-1-7.52-3.71c-1.78,1.78-3.94,7.12-.18,10.09a14.51,14.51,0,0,0,6.32,2.59,30.61,30.61,0,0,0,11.54.06c4.66-.74,10.06-3.09,12.74-6.57a21.56,21.56,0,0,0,4-13.66V335.56H31.06v2.74a13.26,13.26,0,0,0-9.66-3.85Q0,334.45,0,358Zm10.87-.3q0-7.94,3.13-11.18t10.37-3.24a9.21,9.21,0,0,1,6.69,2.93v23.53a10.28,10.28,0,0,1-6.65,2.3q-7.23,0-10.38-3.45T10.87,357.73Z"/><path class="cls-1" d="M309.77,317.52l10.41-5V365.9q0,8.25,4.91,9.83-2.41,4.59-8.24,4.58c-4.73,0-7.08-3.27-7.08-9.83Z"/><path class="cls-1" d="M370,360.81H338.18a11.29,11.29,0,0,0,3.67,8.29q3.36,3,9.08,3a12.28,12.28,0,0,0,4-.34c1.81-.42,4-1.5,6.44-.58a6.66,6.66,0,0,1,3,2.84,18,18,0,0,1,1.42,2.32q-5.49,4.47-16.4,4.46-10.22,0-16.14-6t-5.94-16.68q0-10.55,6.52-17.08a21.29,21.29,0,0,1,15.64-6.54q9.7,0,15.57,5.79A19.82,19.82,0,0,1,370.92,355,28.63,28.63,0,0,1,370,360.81ZM338.56,353h21.9q-1.08-9.78-10.83-9.78Q340.72,343.2,338.56,353Z"/><path class="cls-1" d="M301.7,360.81H269.84a11.28,11.28,0,0,0,3.66,8.29q3.38,3,9.08,3a12.32,12.32,0,0,0,4-.34c1.81-.42,4-1.5,6.44-.58a6.66,6.66,0,0,1,3,2.84,18,18,0,0,1,1.42,2.32Q292,380.77,281,380.76q-10.2,0-16.14-6T259,358.11q0-10.55,6.52-17.08a21.29,21.29,0,0,1,15.64-6.54q9.71,0,15.57,5.79A19.81,19.81,0,0,1,302.57,355,29.19,29.19,0,0,1,301.7,360.81ZM270.21,353h21.91q-1.08-9.78-10.83-9.78Q272.38,343.2,270.21,353Z"/><path class="cls-1" d="M408.67,380a4.39,4.39,0,0,1-3.57-1.88l-11.9-18.32-5,5.29V380H377.79V317.66l10.41-4.81v39.68l14.87-17.11h12.54l-15.08,16.9L418.69,380Z"/><path class="cls-1" d="M429.72,343.71H417.1l7.45-8.37h5.17v-9.08l10.41-3.83v12.91h12.25v8.37H440.13v19.54q0,4.78,1.5,6.77c1,1.32,2.75,2,5.25,2a12.88,12.88,0,0,0,7-2v9.58a33.19,33.19,0,0,1-10.33,1.25q-6.66,0-10.24-3.77t-3.58-10.72Z"/><path class="cls-1" d="M489.28,338.34c-1.64,2.84-.55,7.23-.55,7.23a12.69,12.69,0,0,0-7.31-2.32,10.24,10.24,0,0,0-7.19,3.41,11.92,11.92,0,0,0-2.82,8v25.4H461V335.5h10.41v4.08a14.55,14.55,0,0,1,11.38-5.1,20,20,0,0,1,8.3,1.58A6.93,6.93,0,0,0,489.28,338.34Z"/><path class="cls-1" d="M526.23,366.29v-9.54q0-12.94-4.75-17.6c-3.16-3.09-6.44-4.69-13.25-4.69a29.81,29.81,0,0,0-7.81.87c-7.53,2.19-4.45,9.84-4.45,9.84h0a2.06,2.06,0,0,0,.26-.12l1.44-.59a24.2,24.2,0,0,1,8.13-1.25q10,0,10,7.87a18.65,18.65,0,0,0-4.34-.62q-10.69,0-16.51,4.37A14.34,14.34,0,0,0,489.12,367q0,6.63,4.12,10.23t11.33,3.6a18.67,18.67,0,0,0,7.35-1.48,10,10,0,0,0,4.94-3.81,8.3,8.3,0,0,0,2.42,3.62,6,6,0,0,0,4,1.67,8.22,8.22,0,0,0,3.62-.52,5.89,5.89,0,0,0,2.87-2.77Q526.22,375.19,526.23,366.29Zm-10.37-3.17q0,9.38-9.37,9.37-7,0-7-6,0-8.07,12.33-8.07a22.21,22.21,0,0,1,4,.54Z"/><path class="cls-1" d="M267.61,138.37s8.59,26.55,27.19,36.22c16.1,8.38,36.72,9.92,55.91-11,17.17-18.67,12-39.3,12-39.3l46-9s6.6,33.34-1.78,64.27c0,0-23.45,29.78-62.14,29.78-39.78,0-74.05-15.69-83.72-68.83Z"/><path class="cls-1" d="M257,142.85s18.7-20.72,17.78-41.66c-.8-18.13-9.77-36.75-37.46-42.95-24.75-5.53-40,9.27-40,9.27L166.49,32.19S192.06,9.81,223,1.6c0,0,37.53,5.41,56.89,38.92,19.88,34.45,23.43,72-17.77,106.92Z"/><path class="cls-1" d="M266.22,149.63s-27.28-5.82-45,5.45c-15.3,9.76-26.95,26.84-18.48,53.9,7.59,24.21,28.05,30,28.05,30l-15.22,44.31s-32.16-10.95-54.76-33.67c0,0-14.07-35.21,5.27-68.71,19.9-34.45,50.62-56.29,101.49-38.09Z"/><path class="cls-1" d="M372.42,53.3c5.15,10,13.37,30.84-8.07,58.24-14.64,18.72-37.19,19.62-37.19,19.62s50.68-50.84-4.45-83.78l28.49-15S366.52,41.84,372.42,53.3Z"/><polygon class="cls-1" points="322.71 47.38 351.2 32.41 347.93 22.42 340.55 0 313.26 16.01 322.71 47.38"/><path class="cls-1" d="M131.05,95c6.1-9.49,20-27,54.46-22.13,23.55,3.32,35.59,22.39,35.59,22.39S151.74,76.78,150.78,141l-27.21-17.2S124.08,105.82,131.05,95Z"/><polygon class="cls-1" points="150.78 141 123.57 123.8 116.55 131.63 100.81 149.22 128.33 164.85 150.78 141"/><path class="cls-1" d="M287.51,282.42c-11.24-.54-33.38-3.83-46.4-36.11-8.89-22,1.61-42,1.61-42s18.68,69.31,74.79,38l-1.29,32.15S300.39,283,287.51,282.42Z"/><polygon class="cls-1" points="317.51 242.34 316.22 274.49 326.51 276.66 349.62 281.48 349.38 249.84 317.51 242.34"/></g></g></svg>