<svg xmlns="http://www.w3.org/2000/svg" viewBox="0 0 233.34 44.61"><defs><style>.cls-1{fill:#cd3428;}</style></defs><title>elektra</title><g id="Capa_2" data-name="Capa 2"><g id="Layer_1" data-name="Layer 1"><path class="cls-1" d="M47.46,18.35l-7.08,1.39a7,7,0,0,1-1.85,6.05c-3,3.22-6.14,3-8.62,1.69-2.28-1.18-3.58-4-4-5.11,5.26-5.12,4.61-10.55,1.72-15.56a13.15,13.15,0,0,0-8.77-6,24.84,24.84,0,0,0-8.71,4.72L14.87,11A7,7,0,0,1,21,9.54c4.27,1,5.65,3.83,5.77,6.63.11,2.53-1.64,5-2.39,6-7.07-2-11.46,1.28-14.35,6.29a13.15,13.15,0,0,0-.81,10.6,24.8,24.8,0,0,0,8.44,5.19L20,37.41a7,7,0,0,1-4.32-4.62c-1.31-4.18.49-6.81,2.85-8.32,2.15-1.37,5.22-1.1,6.42-.92,1.79,7.14,6.83,9.3,12.62,9.3a13.14,13.14,0,0,0,9.58-4.59,24.8,24.8,0,0,0,.27-9.91"/><path class="cls-1" d="M34.9,20.79a8.32,8.32,0,0,0,5.73-3c3.31-4.22,2-7.43,1.24-9A10.46,10.46,0,0,0,38.6,5.56L38.1,4,37,.57,32.75,3l1.46,4.84c8.5,5.08.69,12.92.69,12.92"/><path class="cls-1" d="M18.55,15.25a8.32,8.32,0,0,0-5.49-3.45c-5.31-.75-7.46,1.95-8.4,3.41a10.42,10.42,0,0,0-1.15,4.44L2.43,20.86,0,23.57,4.24,26,7.7,22.3c.15-9.9,10.85-7,10.85-7"/><path class="cls-1" d="M33.41,37.93c-8.65,4.82-11.53-5.87-11.53-5.87a8.32,8.32,0,0,0-.25,6.48c2,5,5.42,5.48,7.15,5.57a10.44,10.44,0,0,0,4.43-1.23l1.59.34,3.56.74,0-4.87Z"/><path class="cls-1" d="M89.61,3.28,96.41,0V34.88q0,5.38,3.21,6.42a5.57,5.57,0,0,1-5.38,3q-4.63,0-4.63-6.42Z"/><path class="cls-1" d="M108.42,26.45h14.31q-.7-6.4-7.08-6.4-5.82,0-7.23,6.4M129,31.56H108.17a7.42,7.42,0,0,0,2.4,5.42,8.71,8.71,0,0,0,5.93,1.93,8,8,0,0,0,2.62-.23c1.18-.27,2.61-1,4.21-.37a4.3,4.3,0,0,1,2,1.85,11.74,11.74,0,0,1,.93,1.52q-3.6,2.91-10.72,2.91-6.66,0-10.54-3.9t-3.88-10.9a15.1,15.1,0,0,1,4.26-11.15,14.93,14.93,0,0,1,20.39-.49,12.93,12.93,0,0,1,3.83,9.63,18.37,18.37,0,0,1-.57,3.78"/><path class="cls-1" d="M63.78,26.45H78.09q-.7-6.4-7.07-6.4-5.83,0-7.24,6.4m20.57,5.11H63.53A7.42,7.42,0,0,0,65.93,37a8.71,8.71,0,0,0,5.93,1.93,8,8,0,0,0,2.62-.23c1.18-.27,2.61-1,4.21-.37a4.3,4.3,0,0,1,2,1.85,10.57,10.57,0,0,1,.93,1.52Q78,44.59,70.85,44.59q-6.66,0-10.54-3.9t-3.88-10.9a15.1,15.1,0,0,1,4.26-11.15,13.92,13.92,0,0,1,10.22-4.27,13.87,13.87,0,0,1,10.17,3.78,12.94,12.94,0,0,1,3.84,9.63,19.11,19.11,0,0,1-.57,3.78"/><path class="cls-1" d="M154.21,44.11a2.9,2.9,0,0,1-2.33-1.23l-7.77-12-3.26,3.46v9.74H134V3.37L140.85.24V26.15L150.56,15h8.19L148.9,26l11.86,18.09Z"/><path class="cls-1" d="M168,20.39h-8.24l4.87-5.47H168V9l6.8-2.5v8.43h8v5.47h-8V33.15a7.53,7.53,0,0,0,1,4.42,4.07,4.07,0,0,0,3.43,1.29,8.42,8.42,0,0,0,4.57-1.33v6.26a21.85,21.85,0,0,1-6.75.81,8.8,8.8,0,0,1-6.69-2.46c-1.56-1.64-2.34-4-2.34-7Z"/><path class="cls-1" d="M206.87,16.88c-1.07,1.86-.36,4.73-.36,4.73a8.29,8.29,0,0,0-4.78-1.52,6.71,6.71,0,0,0-4.7,2.23,7.81,7.81,0,0,0-1.83,5.25V44.16h-6.8V15h6.8v2.66a9.47,9.47,0,0,1,7.43-3.33,13,13,0,0,1,5.42,1,4.41,4.41,0,0,0-1.18,1.48"/><path class="cls-1" d="M224.23,33.07q0,6.12-6.12,6.12-4.55,0-4.55-3.92,0-5.28,8.06-5.28a14.19,14.19,0,0,1,2.61.36ZM231,35.14V28.91q0-8.46-3.1-11.5c-2.07-2-4.21-3.06-8.65-3.06a19.5,19.5,0,0,0-5.11.57c-4.92,1.43-2.9,6.42-2.9,6.42h0l.17-.07.94-.39a15.69,15.69,0,0,1,5.31-.81q6.5,0,6.5,5.14a11.53,11.53,0,0,0-2.83-.41q-7,0-10.78,2.85a9.37,9.37,0,0,0-3.8,7.92,8.38,8.38,0,0,0,2.7,6.68,10.84,10.84,0,0,0,7.4,2.35,12.3,12.3,0,0,0,4.79-1,6.6,6.6,0,0,0,3.23-2.49,5.5,5.5,0,0,0,1.58,2.36,3.94,3.94,0,0,0,2.64,1.09,5.2,5.2,0,0,0,2.36-.34,3.8,3.8,0,0,0,1.88-1.81c-1.56-1-2.34-3.43-2.34-7.31"/></g></g></svg>