<svg xmlns="http://www.w3.org/2000/svg" viewBox="0 0 396.99 156.68"><defs><style>.cls-1{fill:#585858;}</style></defs><title>logoBAZBN_1</title><g id="Capa_2" data-name="Capa 2"><g id="Capa_1-2" data-name="Capa 1"><g id="Capa_2-2" data-name="Capa 2"><g id="Capa_1-2-2" data-name="Capa 1-2"><path class="cls-1" d="M226.76,63.23a28.35,28.35,0,1,1-28.35-28.35,28.35,28.35,0,0,1,28.35,28.35v0"/><path class="cls-1" d="M235.16,0a206.84,206.84,0,0,0-39.08,10.83C161.65,25.4,137.4,50.69,139.46,72.08c1.35,14,8.83,23.19,27.06,26.49-32.79,3.41-52.9-6.59-54.8-26.33-2.29-23.76,29.61-52.76,71.94-66a148.15,148.15,0,0,1,18.6-4.14A218.14,218.14,0,0,1,235.16,0"/><path class="cls-1" d="M161.67,0a207.15,207.15,0,0,1,39.09,10.83c34.42,14.55,58.66,39.84,56.61,61.23-1.35,14-8.83,23.19-27.06,26.49C263.1,102,283.22,92,285.11,72.25c2.3-23.76-29.61-52.76-72-66a147.6,147.6,0,0,0-18.59-4.14A218.71,218.71,0,0,0,161.67,0"/><path class="cls-1" d="M8.91,113.36H27.82c4.39,0,12,1.71,12,9.76,0,5.73-4.45,10-11.16,10.8v.1c4.88.73,8.24,3.54,8.24,8.23,0,9-7.75,13.3-17.51,13.42L0,155.94Zm4,34.53H16c5.73,0,9.58-1.59,9.58-5.73,0-3.72-2.68-4.27-7.81-4.27H15Zm3.72-17.69H20.9c4.76,0,7.56-1.89,7.56-4.82,0-3.42-2.81-4-7.08-4h-2.9Z"/><path class="cls-1" d="M60.63,151.49l-.12-.12v.12c-2.32,3.66-6.41,5.19-10.68,5.19-6.83,0-10.62-3.05-10.62-9.21,0-7.81,7.81-11.65,17.51-11.65,2.2,0,4.39.18,5.92.31a4.6,4.6,0,0,0,.12-1.28c0-2.26-2.26-4.09-5.86-4.09a20,20,0,0,0-10.31,2.5l1.1-8a34.19,34.19,0,0,1,11.65-1.83c7.56,0,13.79,3,13.79,10.8,0,5-2.81,12.14-4,21.72h-9Zm-7.32-2.14c4.7,0,7.5-3.23,8.3-7.5a16,16,0,0,0-2.93-.18c-5.25-.18-9.09,1.71-9.09,4.52a3.51,3.51,0,0,0,3.72,3.17"/><path class="cls-1" d="M79.36,132.45c.55-2.75,1-5.43,1.34-8.3H90.89L90,129.34h.12c3.17-3.54,6.47-5.92,12.26-5.92,6.41,0,9.88,4.76,9.88,11a29.23,29.23,0,0,1-.85,6.71L108.48,156H97.17l3-14.93a25.41,25.41,0,0,0,.73-4.82c0-1.89-1.22-3.78-4.27-3.66-4.64,0-7.38,4-8.17,8.72L85.4,155.94h-11Z"/><path class="cls-1" d="M139.51,155.45a29.6,29.6,0,0,1-9.4,1.22c-9.27,0-15-6.53-15-14.52,0-10.43,8.3-18.73,20.5-18.73a29.13,29.13,0,0,1,10,2.14l-2.38,7.63a16.88,16.88,0,0,0-7.08-1.71c-5.67,0-9.7,3.66-9.7,10.25,0,3.78,2.93,6.89,7.57,6.89a17.22,17.22,0,0,0,7.08-1.4Z"/><path class="cls-1" d="M160.61,156.67c-11.77,0-16.53-6.53-16.53-14.52,0-11.16,8-18.73,20.5-18.73,10.8,0,16.53,6.22,16.53,14.21,0,13.24-8.6,19-20.5,19M164,131.11c-5.31,0-8.6,5.73-8.6,10.8,0,4.27,2.26,7.14,6,7.08,5.12,0,8.36-4.27,8.36-11.47,0-3.29-1.46-6.41-5.73-6.41"/><path class="cls-1" d="M216.67,113.36H231l7,42.58H226.43l-1.16-9.09H208.74l-5.06,9.09H191.36Zm5.67,8.78h-.12l-9,16.65h11Z"/><polygon class="cls-1" points="240.52 147.64 257.85 132.21 244.24 132.21 245.89 124.16 272.85 124.16 271.14 132.45 253.7 147.89 268.22 147.89 266.57 155.94 238.94 155.94 240.52 147.64"/><path class="cls-1" d="M274.44,124.16h6.28l1.53-6.83,11.59-3.11-2.2,9.94h7.57l-1.34,7.69h-8L288,140.69a29.84,29.84,0,0,0-.92,5.49,3.35,3.35,0,0,0,3.14,3.54h.46a11.15,11.15,0,0,0,3.54-.92L293,156a44.68,44.68,0,0,1-6.83.61c-5.61,0-10.07-2.74-10.07-9.4a30,30,0,0,1,1-6.53l1.89-8.91H273.1Z"/><path class="cls-1" d="M325.56,154.9a41,41,0,0,1-11.1,1.77c-10.61,0-16.35-6.53-16.35-14.52,0-7.38,4.88-18.73,19-18.73,8.36,0,14.64,4.21,14.64,13.85a35.73,35.73,0,0,1-.79,6H308.47c.12,3.42,1.83,6.1,8.54,6.1a25.06,25.06,0,0,0,9.94-2.19ZM322.63,137c0-3.42-1.34-6.28-5.37-6.28a8.11,8.11,0,0,0-8.11,6.28Z"/><path class="cls-1" d="M358.86,155.45a29.6,29.6,0,0,1-9.4,1.22c-9.27,0-15-6.53-15-14.52,0-10.43,8.3-18.73,20.5-18.73a29.13,29.13,0,0,1,10,2.14l-2.38,7.63a16.88,16.88,0,0,0-7.08-1.71c-5.67,0-9.7,3.66-9.7,10.25,0,3.78,2.93,6.89,7.57,6.89a17.22,17.22,0,0,0,7.08-1.4Z"/><path class="cls-1" d="M384.48,151.49l-.12-.12v.12c-2.32,3.66-6.41,5.19-10.68,5.19-6.83,0-10.61-3.05-10.61-9.21,0-7.81,7.81-11.65,17.51-11.65,2.2,0,4.39.18,5.92.31a4.6,4.6,0,0,0,.12-1.28c0-2.26-2.26-4.09-5.86-4.09a20,20,0,0,0-10.31,2.5l1.1-8a34.19,34.19,0,0,1,11.65-1.83c7.57,0,13.79,3,13.79,10.8,0,5-2.8,12.14-4,21.72h-9Zm-7.32-2.14c4.7,0,7.5-3.23,8.3-7.5a16,16,0,0,0-2.93-.18c-5.25-.18-9.09,1.71-9.09,4.52a3.51,3.51,0,0,0,3.72,3.17"/></g></g></g></g></svg>