<svg xmlns="http://www.w3.org/2000/svg" viewBox="0 0 1381.75 268.41"><defs><style>.cls-1{fill:#585858;}</style></defs><title>logoEKTBN_1</title><g id="Capa_2" data-name="Capa 2"><g id="Capa_1-2" data-name="Capa 1"><g id="Capa_2-2" data-name="Capa 2"><g id="Layer_1" data-name="Layer 1"><path class="cls-1" d="M498.46,188.42H371q1.15,21.32,14.66,33.14T422,233.38c5.27,0,19,2,34.48-8l25,25q-22,17.82-65.62,17.82-40.82,0-64.54-23.9t-23.73-66.71q0-42.14,26.07-68.29T416.2,83.15q38.81,0,62.29,23.15t23.48,59Q502,172.93,498.46,188.42ZM372.55,157.1h87.61Q455.82,118,416.85,118,381.21,118,372.55,157.1Z"/><path class="cls-1" d="M761.55,188.42H634.13q1.15,21.32,14.66,33.14t36.31,11.83c5.27,0,19,2,34.48-8l25,25q-22,17.82-65.62,17.82-40.82,0-64.54-23.9T590.69,177.6q0-42.14,26.07-68.29T679.3,83.16q38.81,0,62.29,23.15t23.48,59Q765,172.93,761.55,188.42ZM635.63,157.1h87.61Q718.91,118,679.93,118,644.29,118,635.63,157.1Z"/><path class="cls-1" d="M526.79,22,568.43,0V212.57c-1.36,28.8,6.55,35.09,19.65,39.31-6.44,12.22-17.5,17.72-33,16.31-8.1-.74-28.31-11.09-28.31-37.3Z"/><path class="cls-1" d="M903.2,268.19l-52.46-80.78-20,21.15v59.63H789.11V23.36l41.64-22V158.27l59.46-68.45h50.13L880,157.44,952.62,268.2Z"/><path class="cls-1" d="M992.51,124H945.78l26.08-33.5h20.65V54.19l41.64-15.32V90.5h45V124h-45v74.1q0,19.16,6,27.06t21,7.91a51.67,51.67,0,0,0,28-8.16V263.2q-14.49,5-41.31,5-26.65,0-41-15.07t-14.32-42.89Z"/><path class="cls-1" d="M1220,132.63c-7.44-4.88-19.62-7.33-28.5-7.33q-14.49,0-25.73,13.16t-11.24,32.14v97.59H1112.9V93.83h41.64v16.32Q1172,90.5,1201,90.5c14.21,0,17.07,2.16,24.62,6.49Z"/><path class="cls-1" d="M1332,247q-5.67,9.33-19.74,15.24a75.31,75.31,0,0,1-29.4,5.91q-28.81,0-45.3-14.41T1221.1,212.9q0-31,23.23-48.47t66-17.49a73.47,73.47,0,0,1,17.32,2.5c0-21-13.27-29.47-39.81-29.47q-23.47,0-39.31,7.83l-1-32.31c14.32-6.89,23.34-10.33,43.11-10.33q40.8,0,59.79,18.57c12.66,12.38,19,33.83,19,68.36v38.14c0,23.76,2.77,38.7,12.32,44.81-3.44,6-5.27,9.69-9.48,11.08a46.21,46.21,0,0,1-14.49,2.08,23.08,23.08,0,0,1-16.15-6.66A34,34,0,0,1,1332,247Zm-4-66.12q-10.66-2.16-16-2.16-49.3,0-49.3,32.31,0,24,27.81,24,37.48,0,37.48-37.48Z"/><path class="cls-1" d="M143.94,132.19S78.16,102.5,49,182.58c0,0-16.37,61.82,44.52,82.91l17.41-44.68s-34.44-11.05-29.55-56C95.2,121.64,143.94,132.19,143.94,132.19Z"/><path class="cls-1" d="M194.54,219l-.84,29.78s-33,20.9-58.22-6.35S124.81,185,124.81,185,142.58,248.52,194.54,219Z"/><polygon class="cls-1" points="194.54 218.96 193.7 248.73 224.49 254.6 223.78 225.47 194.54 218.96"/><path class="cls-1" d="M143.94,132.19s6.23,71.9,90.38,58.24c0,0,61.93-15.92,50.59-79.36l-47.49,6.64s7.19,35.45-34.41,53.13C158.55,179.87,143.94,132.19,143.94,132.19Z"/><path class="cls-1" d="M197.08,46.18l26.45-13.71s34.3,18.76,22.68,54-45,37.15-45,37.15S248.14,77.29,197.08,46.18Z"/><polygon class="cls-1" points="197.08 46.19 223.54 32.48 213.73 2.71 188.6 17.47 197.08 46.19"/><path class="cls-1" d="M144,131.65s59.55-40.8,6.27-107.32c0,0-44.33-46.09-94-5L85.47,57.4s27.33-23.7,63.18,3.82C178.38,95.47,144,131.65,144,131.65Z"/><path class="cls-1" d="M45.91,128.6,20.84,112.49S20,73.41,56.35,65.93,111,86.44,111,86.44,47.43,68.83,45.91,128.6Z"/><polygon class="cls-1" points="45.91 128.6 20.84 112.49 0 135.99 25.23 150.26 45.91 128.6"/></g></g></g></g></svg>