<svg xmlns="http://www.w3.org/2000/svg" viewBox="0 0 109.5 70.3"><defs><style>.cls-1{fill:#585858;}.cls-2{fill:#fff;}</style></defs><title>logoPrestaPrendaBN_1</title><g id="Capa_2" data-name="Capa 2"><g id="Layer_1" data-name="Layer 1"><path class="cls-1" d="M.3,16.8H6.2c6.3,0,9.2,2.6,9.2,8.2,0,5.3-3,8.3-8.3,8.3H5.8V45H.3ZM6.4,29c1.9,0,3.7-.7,3.7-4,0-2.6-1.2-3.9-3.7-3.9H5.8V29Z"/><path class="cls-1" d="M18.3,16.8h5.9c6.3,0,9.2,2.3,9.2,7.9,0,3.9-1.5,6.4-4.5,7.4l5.4,12.8H28.4L23.8,33.2V44.9H18.3ZM24.4,29c2.4,0,3.7-1.3,3.7-4,0-2.5-.8-3.9-3.6-3.9h-.8V29Z"/><path class="cls-1" d="M36.5,16.8H48.4V22H41.9v5.7h5.8v5.2H41.9v6.6h6.4V45H36.5Z"/><path class="cls-1" d="M80.4,22H76.1V16.8H90.4V22H86.1V44.9H80.4Z"/><path class="cls-1" d="M97.3,16.8h5.9L109.4,45h-5.5l-1-5H97.2l-.9,4.9H90.7ZM102,35.6l-1.9-13-1.9,13Z"/><path class="cls-1" d="M53.5,33.6C55.9,35.9,59.7,38,63,38c2.2,0,5-1.3,5-3.9,0-3-4.1-3.5-8.3-5s-8.3-3.9-8.3-10.3c0-6.2,4.3-12,10.8-12.4V0h4.9V6.4a20.55,20.55,0,0,1,9.6,3.1l-3.9,7.7A11.24,11.24,0,0,0,66,14.6c-2.3,0-4.5.8-4.5,3,0,2.4,3.3,3.5,5.2,4.1,6,2,11.5,4.2,11.5,11.6S74,44.5,67.1,46.2v6.6H62.2V46.5a20,20,0,0,1-6.8-1.3,16.6,16.6,0,0,1-6.2-3.5Z"/><rect class="cls-1" y="49.3" width="109.5" height="21"/><path class="cls-2" d="M9.6,52.7h6.1a7.56,7.56,0,0,1,4.7,1.2c1,.8,1.5,2.1,1.5,4a5,5,0,0,1-1.3,3.7,6.2,6.2,0,0,1-4.2,1.2H14.8V67H9.7V52.7ZM14.7,59h.8Q17,59,17,57.8t-1.5-1.2h-.8Z"/><path class="cls-2" d="M24.8,52.7h6.4a6.68,6.68,0,0,1,4.3,1.2,4.2,4.2,0,0,1,1.4,3.5,4.15,4.15,0,0,1-.8,2.5,2.72,2.72,0,0,1-2,1.1l3.8,5.8H32.2l-2.5-4.7v4.7h-5V52.7Zm4.9,6.4h.8c1,0,1.5-.5,1.5-1.4s-.5-1.4-1.5-1.4h-.8Z"/><path class="cls-2" d="M40.1,52.7h9.4v3.8H45v1.4h4v3.6H45V63h4.6v3.8H40.1Z"/><path class="cls-2" d="M52.9,52.7h5l4.4,7.4-.2-7.4H67V66.9H62l-4.3-7.3.2,7.3h-5Z"/><path class="cls-2" d="M70.7,52.7h4.1a29.17,29.17,0,0,1,3.3.2,11.33,11.33,0,0,1,2.8.9,6.53,6.53,0,0,1,2.4,2.3,7.08,7.08,0,0,1,.2,6.9,6.11,6.11,0,0,1-2.1,2.4,8.13,8.13,0,0,1-2.9,1.2,22.51,22.51,0,0,1-4,.3H70.8V52.7ZM76,57h-.2v5.5a3.56,3.56,0,0,0,2.5-.7,2.56,2.56,0,0,0,.8-2.1C79.1,58,78,57,76,57Z"/><path class="cls-2" d="M90.7,52.7h5.6l4.9,14.2H95.8l-.5-1.8H91.5l-.4,1.8H85.7Zm1.7,9h2.1l-1-4.7Z"/></g></g></svg>