<svg xmlns="http://www.w3.org/2000/svg" width="269" height="269.02" viewBox="0 0 269 269.02">
  <g id="Booking" transform="translate(-2 -2)" opacity="0.999">
    <path id="Trazado_2268" data-name="Trazado 2268" d="M30.265,10H12.453A4.453,4.453,0,0,0,8,14.453V32.265a4.453,4.453,0,0,0,4.453,4.453H30.265a4.453,4.453,0,0,0,4.453-4.453V14.453A4.453,4.453,0,0,0,30.265,10ZM25.812,27.812H16.906V18.906h8.906Z" transform="translate(20.717 27.623)" fill="#404040"/>
    <path id="Trazado_2269" data-name="Trazado 2269" d="M20.453,36.717H38.265a4.453,4.453,0,0,0,4.453-4.453V14.453A4.453,4.453,0,0,0,38.265,10H20.453A4.453,4.453,0,0,0,16,14.453V32.265A4.453,4.453,0,0,0,20.453,36.717Zm4.453-17.812h8.906v8.906H24.906Z" transform="translate(48.341 27.623)" fill="#404040"/>
    <path id="Trazado_2270" data-name="Trazado 2270" d="M28.453,36.717H46.265a4.453,4.453,0,0,0,4.453-4.453V14.453A4.453,4.453,0,0,0,46.265,10H28.453A4.453,4.453,0,0,0,24,14.453V32.265A4.453,4.453,0,0,0,28.453,36.717Zm4.453-17.812h8.906v8.906H32.906Z" transform="translate(75.964 27.623)" fill="#404040"/>
    <path id="Trazado_2271" data-name="Trazado 2271" d="M36.453,36.717H54.265a4.453,4.453,0,0,0,4.453-4.453V14.453A4.453,4.453,0,0,0,54.265,10H36.453A4.453,4.453,0,0,0,32,14.453V32.265A4.453,4.453,0,0,0,36.453,36.717Zm4.453-17.812h8.906v8.906H40.906Z" transform="translate(103.587 27.623)" fill="#404040"/>
    <path id="Trazado_2272" data-name="Trazado 2272" d="M44.453,36.717H62.265a4.453,4.453,0,0,0,4.453-4.453V14.453A4.453,4.453,0,0,0,62.265,10H44.453A4.453,4.453,0,0,0,40,14.453V32.265A4.453,4.453,0,0,0,44.453,36.717Zm4.453-17.812h8.906v8.906H48.906Z" transform="translate(131.21 27.623)" fill="#404040"/>
    <path id="Trazado_2273" data-name="Trazado 2273" d="M30.265,18H12.453A4.453,4.453,0,0,0,8,22.453V40.265a4.453,4.453,0,0,0,4.453,4.453H30.265a4.453,4.453,0,0,0,4.453-4.453V22.453A4.453,4.453,0,0,0,30.265,18ZM25.812,35.812H16.906V26.906h8.906Z" transform="translate(20.717 55.246)" fill="#404040"/>
    <path id="Trazado_2274" data-name="Trazado 2274" d="M30.265,26H12.453A4.453,4.453,0,0,0,8,30.453V48.265a4.453,4.453,0,0,0,4.453,4.453H30.265a4.453,4.453,0,0,0,4.453-4.453V30.453A4.453,4.453,0,0,0,30.265,26ZM25.812,43.812H16.906V34.906h8.906Z" transform="translate(20.717 82.87)" fill="#404040"/>
    <path id="Trazado_2275" data-name="Trazado 2275" d="M30.265,34H12.453A4.453,4.453,0,0,0,8,38.453V56.265a4.453,4.453,0,0,0,4.453,4.453H30.265a4.453,4.453,0,0,0,4.453-4.453V38.453A4.453,4.453,0,0,0,30.265,34ZM25.812,51.812H16.906V42.906h8.906Z" transform="translate(20.717 110.493)" fill="#404040"/>
    <path id="Trazado_2276" data-name="Trazado 2276" d="M30.265,42H12.453A4.453,4.453,0,0,0,8,46.453V64.265a4.453,4.453,0,0,0,4.453,4.453H30.265a4.453,4.453,0,0,0,4.453-4.453V46.453A4.453,4.453,0,0,0,30.265,42ZM25.812,59.812H16.906V50.906h8.906Z" transform="translate(20.717 138.116)" fill="#404040"/>
    <path id="Trazado_2277" data-name="Trazado 2277" d="M20.453,44.717H38.265a4.453,4.453,0,0,0,4.453-4.453V22.453A4.453,4.453,0,0,0,38.265,18H20.453A4.453,4.453,0,0,0,16,22.453V40.265A4.453,4.453,0,0,0,20.453,44.717Zm4.453-17.812h8.906v8.906H24.906Z" transform="translate(48.341 55.246)" fill="#404040"/>
    <path id="Trazado_2278" data-name="Trazado 2278" d="M28.453,44.717H46.265a4.453,4.453,0,0,0,4.453-4.453V22.453A4.453,4.453,0,0,0,46.265,18H28.453A4.453,4.453,0,0,0,24,22.453V40.265A4.453,4.453,0,0,0,28.453,44.717Zm4.453-17.812h8.906v8.906H32.906Z" transform="translate(75.964 55.246)" fill="#404040"/>
    <path id="Trazado_2279" data-name="Trazado 2279" d="M36.453,44.717H54.265a4.453,4.453,0,0,0,4.453-4.453V22.453A4.453,4.453,0,0,0,54.265,18H36.453A4.453,4.453,0,0,0,32,22.453V40.265A4.453,4.453,0,0,0,36.453,44.717Zm4.453-17.812h8.906v8.906H40.906Z" transform="translate(103.587 55.246)" fill="#404040"/>
    <path id="Trazado_2280" data-name="Trazado 2280" d="M44.453,44.717H62.265a4.453,4.453,0,0,0,4.453-4.453V22.453A4.453,4.453,0,0,0,62.265,18H44.453A4.453,4.453,0,0,0,40,22.453V40.265A4.453,4.453,0,0,0,44.453,44.717Zm4.453-17.812h8.906v8.906H48.906Z" transform="translate(131.21 55.246)" fill="#404040"/>
    <path id="Trazado_2281" data-name="Trazado 2281" d="M43,34v8.906a31.206,31.206,0,0,1,31.17,31.17h8.906A40.121,40.121,0,0,0,43,34Z" transform="translate(141.569 110.493)" fill="#404040"/>
    <path id="Trazado_2282" data-name="Trazado 2282" d="M267.1,248.215l-18.889-18.894a4.582,4.582,0,0,0-6.3,0l-3.148,3.153-10.291-10.291a57.687,57.687,0,0,0-12.74-86.315V28.717h4.453a4.453,4.453,0,0,0,4.453-4.453V6.453A4.453,4.453,0,0,0,220.192,2H6.453A4.453,4.453,0,0,0,2,6.453V24.265a4.453,4.453,0,0,0,4.453,4.453h4.453V229.1a4.453,4.453,0,0,0,4.453,4.453H153.844a57.509,57.509,0,0,0,68.321-5.072l10.291,10.291-3.148,3.148a4.453,4.453,0,0,0,0,6.3L248.2,267.108a13.358,13.358,0,1,0,18.889-18.894ZM10.906,10.906H215.739v8.906H10.906Zm8.906,17.812H206.834V131.134a57.821,57.821,0,0,0-8.906-2.85V113.323a4.453,4.453,0,0,0-4.453-4.453H175.663a4.453,4.453,0,0,0-4.453,4.453V128.3a57.637,57.637,0,0,0-17.812,7.57V113.323a4.453,4.453,0,0,0-4.453-4.453H77.7a4.453,4.453,0,0,0-4.453,4.453v75.7H68.794a4.453,4.453,0,0,0-4.453,4.453v13.359a4.453,4.453,0,0,0-4.453,4.453v13.359H19.812Zm160.3,97.964v-8.906h8.906v8.906ZM68.794,215.739h67.074a58.123,58.123,0,0,0,7.027,8.906h-74.1Zm4.453-8.906v-8.906H128.3a57.821,57.821,0,0,0,2.837,8.906Zm53.435-17.812H99.964V135.587h26.717Zm4.453-62.341H95.511a4.453,4.453,0,0,0-4.453,4.453v57.888H82.152V117.776h62.341v25.119a58.084,58.084,0,0,0-8.906,10.95v-22.71A4.453,4.453,0,0,0,131.134,126.681Zm53.435,106.87a48.982,48.982,0,1,1,48.982-48.982,48.982,48.982,0,0,1-48.982,48.982Zm76.238,27.261a4.564,4.564,0,0,1-6.3,0L238.77,245.066l6.3-6.3,15.741,15.741a4.453,4.453,0,0,1,0,6.3Z" fill="#404040"/>
  </g>
</svg>
