<svg xmlns="http://www.w3.org/2000/svg" width="325.68" height="238.832" viewBox="0 0 325.68 238.832">
  <g id="surface1" transform="translate(0 -0.25)">
    <path id="Trazado_2250" data-name="Trazado 2250" d="M320.252,195.658H309.4V27.39A27.174,27.174,0,0,0,282.256.25H43.424a27.174,27.174,0,0,0-27.14,27.14V195.658H5.428A5.427,5.427,0,0,0,0,201.086V217.37a21.713,21.713,0,0,0,21.712,21.712H303.968A21.713,21.713,0,0,0,325.68,217.37V201.086A5.427,5.427,0,0,0,320.252,195.658ZM27.14,27.39A16.286,16.286,0,0,1,43.424,11.106H282.256A16.286,16.286,0,0,1,298.54,27.39V195.658H287.684V38.246A16.286,16.286,0,0,0,271.4,21.962H54.28A16.286,16.286,0,0,0,38,38.246V195.658H27.14ZM276.828,38.246V195.658H196.048a15.161,15.161,0,0,0-13.668,8.43,4.343,4.343,0,0,1-3.924,2.426H147.2a4.344,4.344,0,0,1-3.924-2.426,15.163,15.163,0,0,0-13.641-8.43H48.852V38.246a5.426,5.426,0,0,1,5.428-5.428H271.4A5.426,5.426,0,0,1,276.828,38.246Zm38,179.124a10.855,10.855,0,0,1-10.856,10.856H21.712A10.855,10.855,0,0,1,10.856,217.37V206.514H129.631a4.344,4.344,0,0,1,3.924,2.426,15.163,15.163,0,0,0,13.641,8.43h31.287a15.161,15.161,0,0,0,13.668-8.43,4.344,4.344,0,0,1,3.9-2.426H314.824Zm0,0" fill="#404040"/>
    <path id="Trazado_2251" data-name="Trazado 2251" d="M305.6,187.75a86.885,86.885,0,0,0-79.618,121.587l9.949-4.342a74.986,74.986,0,0,1-6.049-24.969H240.7a64.839,64.839,0,0,0,10.313,30.105l9.1-5.93a54.279,54.279,0,1,1,91.006,0l9.095,5.93a64.805,64.805,0,0,0,10.271-30.105h10.826a74.986,74.986,0,0,1-6.05,24.969l9.95,4.342A86.885,86.885,0,0,0,305.6,187.75Zm-64.862,81.42H229.878a75.571,75.571,0,0,1,18.355-44.259l7.671,7.667A64.826,64.826,0,0,0,240.734,269.17Zm59.434-59.434a64.826,64.826,0,0,0-36.591,15.17l-7.667-7.671a75.571,75.571,0,0,1,44.258-18.355Zm47.447,15.17a64.827,64.827,0,0,0-36.591-15.17V198.88a75.571,75.571,0,0,1,44.259,18.355Zm22.842,44.264a64.827,64.827,0,0,0-15.17-36.591l7.671-7.667a75.571,75.571,0,0,1,18.355,44.259Zm0,0" transform="translate(-142.756 -122.364)" fill="#404040"/>
    <path id="Trazado_2252" data-name="Trazado 2252" d="M445.134,354.7a16.079,16.079,0,0,0-6.975-1.628,16.284,16.284,0,1,0,16.284,16.284,16.08,16.08,0,0,0-1.628-6.975l21.754-21.755-7.675-7.675Zm-6.975,20.084a5.428,5.428,0,1,1,5.428-5.428A5.426,5.426,0,0,1,438.159,374.787Zm0,0" transform="translate(-275.319 -217.125)" fill="#404040"/>
    <path id="Trazado_2253" data-name="Trazado 2253" d="M406.25,515.875h27.14v10.856H406.25Zm0,0" transform="translate(-265.122 -336.501)" fill="#404040"/>
    <path id="Trazado_2254" data-name="Trazado 2254" d="M515.625,515.875h10.856v10.856H515.625Zm0,0" transform="translate(-336.501 -336.501)" fill="#404040"/>
    <path id="Trazado_2255" data-name="Trazado 2255" d="M171.875,125.25h10.856v10.856H171.875Zm0,0" transform="translate(-112.167 -81.576)" fill="#404040"/>
    <path id="Trazado_2256" data-name="Trazado 2256" d="M296.875,125.25h10.856v10.856H296.875Zm0,0" transform="translate(-193.743 -81.576)" fill="#404040"/>
    <path id="Trazado_2257" data-name="Trazado 2257" d="M171.875,187.75h27.14v10.856h-27.14Zm0,0" transform="translate(-112.167 -122.364)" fill="#404040"/>
    <path id="Trazado_2258" data-name="Trazado 2258" d="M625,125.25h48.852v10.856H625Zm0,0" transform="translate(-407.88 -81.576)" fill="#404040"/>
    <path id="Trazado_2259" data-name="Trazado 2259" d="M671.875,187.75h32.568v10.856H671.875Zm0,0" transform="translate(-438.471 -122.364)" fill="#404040"/>
    <path id="Trazado_2260" data-name="Trazado 2260" d="M234.375,125.25h10.856v10.856H234.375Zm0,0" transform="translate(-152.955 -81.576)" fill="#404040"/>
  </g>
</svg>
