<svg xmlns="http://www.w3.org/2000/svg" width="266.225" height="252.938" viewBox="0 0 266.225 252.938">
  <g id="outline" transform="translate(-16 -40)">
    <path id="Trazado_2353" data-name="Trazado 2353" d="M28.2,244.1H159.422a62.116,62.116,0,1,0,96.169-64.257V84.369a4.437,4.437,0,0,0-4.437-4.437H189.038V53.311A13.326,13.326,0,0,0,175.728,40H95.864A13.326,13.326,0,0,0,82.553,53.311V79.932H20.437A4.437,4.437,0,0,0,16,84.369V231.9a12.215,12.215,0,0,0,12.2,12.2Zm245.138-13.311a53.243,53.243,0,0,1-105,12.5c.2-.26.4-.52.62-.776a20.471,20.471,0,0,1,9.258-6.25,29.386,29.386,0,0,0,58.309,1.73h19.064a4.437,4.437,0,0,0,4.437-4.437v-24.4a4.437,4.437,0,0,0-4.413-4.437l-43.879-.241a29.373,29.373,0,0,0-32.9,22.463,29.52,29.52,0,0,0-11.953,5.4c-.015-.516-.024-1.033-.024-1.553a53.243,53.243,0,0,1,106.485,0Zm-28.407-10.8V213.53l6.222.034v15.553H232.417a4.437,4.437,0,0,0-4.437,4.437,20.3,20.3,0,0,1-4.416,12.723A20.51,20.51,0,1,1,210.7,213.289a4.439,4.439,0,0,0,.669.055l24.693.135v6.509ZM171.291,48.874h4.437a4.442,4.442,0,0,1,4.437,4.437V79.932h-8.874Zm-62.116,0h53.243V62.184H109.175Zm0,22.184h53.243v8.874H109.175ZM91.427,53.311a4.442,4.442,0,0,1,4.437-4.437H100.3V79.932H91.427Zm-66.553,35.5H246.718v9.761A25.763,25.763,0,0,1,220.984,124.3H50.608A25.763,25.763,0,0,1,24.874,98.567Zm0,32.871a34.526,34.526,0,0,0,25.734,11.5H220.984a34.526,34.526,0,0,0,25.734-11.5v52.994a62.1,62.1,0,0,0-84.639,33.93h-4.1V168.67a4.437,4.437,0,0,0-4.437-4.437H135.8a4.437,4.437,0,0,0-4.437,4.437V208.6h-8.874V146.485a4.437,4.437,0,0,0-4.437-4.437H100.3a4.437,4.437,0,0,0-4.437,4.437V208.6H86.99V181.98a4.437,4.437,0,0,0-4.437-4.437H64.806a4.437,4.437,0,0,0-4.437,4.437V208.6H51.5V157.2l1.3,1.3a4.437,4.437,0,0,0,6.275-6.275L50.2,143.348a4.437,4.437,0,0,0-6.275,0l-8.874,8.874a4.437,4.437,0,1,0,6.275,6.275l1.3-1.3v55.841a4.437,4.437,0,0,0,4.437,4.437H159.422a62.123,62.123,0,0,0-1.442,13.311q0,2.238.16,4.437H28.2a3.331,3.331,0,0,1-3.328-3.328Zm124.233,51.43v35.5h-8.874v-35.5Zm-35.5-22.184V208.6h-8.874V150.922Zm-35.5,35.5V208.6H69.243V186.417Z" fill="#404040"/>
    <path id="Trazado_2354" data-name="Trazado 2354" d="M350.311,364.992A13.311,13.311,0,1,0,363.621,378.3,13.311,13.311,0,0,0,350.311,364.992Zm0,17.747a4.437,4.437,0,1,1,4.437-4.437A4.437,4.437,0,0,1,350.311,382.74Z" transform="translate(-142.97 -144.748)" fill="#404040"/>
    <path id="Trazado_2355" data-name="Trazado 2355" d="M288,224h8.874v8.874H288Z" transform="translate(-121.146 -81.952)" fill="#404040"/>
    <path id="Trazado_2356" data-name="Trazado 2356" d="M320,224h22.184v8.874H320Z" transform="translate(-135.399 -81.952)" fill="#404040"/>
    <path id="Trazado_2357" data-name="Trazado 2357" d="M288,256h22.184v8.874H288Z" transform="translate(-121.146 -96.204)" fill="#404040"/>
  </g>
</svg>
