<svg id="Group_285" data-name="Group 285" xmlns="http://www.w3.org/2000/svg" viewBox="0 0 11.699 11.7">
  <defs>
    <style>
      .cls-1 {
        fill: #353435;
      }
    </style>
  </defs>
  <path id="Path_1799" data-name="Path 1799" class="cls-1" d="M.6,11.7c-.4,0-.6-.1-.6-.6V.6C0,.2.1,0,.6,0H5.3c.2,0,.2,0,.2.1a.638.638,0,0,1,0,.6.52.52,0,0,1-.4.2L4.5,1a20.024,20.024,0,0,0-2.4.4c-.5,0-.7.2-.7.8V9.4c0,.6.2.8.8.8H9.4c.5,0,.8-.2.8-.7.1-.6.2-1.1.3-1.7.1-.5.1-.9.2-1.4,0-.2.3-.4.5-.4h0a.458.458,0,0,1,.4.5v4.3c0,.6-.2.8-.8.8H2.9Z"/>
  <path id="Path_1800" data-name="Path 1800" class="cls-1" d="M5.4,8.5H3.6a.265.265,0,0,1-.3-.3V6.3a.975.975,0,0,1,.4-.9l.5-.5C5.7,3.4,7.1,1.9,8.6.4A.548.548,0,0,1,9.2,0a.908.908,0,0,1,.7.3l1.5,1.5a.967.967,0,0,1,0,1.4c-1.4,1.4-3,2.9-5,4.9a1.777,1.777,0,0,1-1,.4ZM7.6,2,9.5,3.9l1.3-1.3L9,.8Z"/>
</svg>
