<svg xmlns="http://www.w3.org/2000/svg" width="199.089" height="253.405" viewBox="0 0 199.089 253.405">
  <g id="clipboard" transform="translate(-47.037 0)">
    <g id="Grupo_2954" data-name="Grupo 2954" transform="translate(47.037 0)">
      <g id="Grupo_2953" data-name="Grupo 2953">
        <path id="Trazado_2261" data-name="Trazado 2261" d="M220.787,33.2H197.862V22.945c0-3.318-3.62-4.826-6.938-4.826h-17.8C168.9,6.053,158.347.02,146.281.02a27.45,27.45,0,0,0-26.847,18.1h-17.5c-3.318,0-6.636,1.508-6.636,4.826V33.2H72.376A25.641,25.641,0,0,0,47.037,57.634V230.48c0,13.273,12.066,22.925,25.339,22.925H220.788c13.273,0,25.339-9.653,25.339-22.925V57.635A25.641,25.641,0,0,0,220.787,33.2Zm-113.42-3.016h16.591a6.637,6.637,0,0,0,5.732-5.43,17.5,17.5,0,0,1,16.591-13.574,17.193,17.193,0,0,1,16.289,13.574,6.636,6.636,0,0,0,6.033,5.43H185.8V54.317h-78.43ZM234.06,230.48c0,6.636-6.636,10.859-13.273,10.859H72.376c-6.636,0-13.273-4.223-13.273-10.859V57.635A13.574,13.574,0,0,1,72.376,45.268H95.3V60.652a6.335,6.335,0,0,0,6.636,5.732h88.986a6.636,6.636,0,0,0,6.938-5.732V45.267h22.925A13.575,13.575,0,0,1,234.06,57.634V230.48Z" transform="translate(-47.037 0)" fill="#fbfbfc"/>
        <path id="Trazado_2262" data-name="Trazado 2262" d="M145.476,232.192a6.033,6.033,0,0,0-8.446-.3l-19.306,18.4-8.144-8.446a6.033,6.033,0,0,0-8.446-.3,6.335,6.335,0,0,0,0,8.748L113.5,262.961a5.429,5.429,0,0,0,4.223,1.81,6.031,6.031,0,0,0,4.223-1.81l23.529-22.322a5.731,5.731,0,0,0,.348-8.1Q145.659,232.358,145.476,232.192Z" transform="translate(-69.159 -97.335)" fill="#fbfbfc"/>
        <path id="Trazado_2263" data-name="Trazado 2263" d="M273.96,256.034H204.581a6.033,6.033,0,1,0,0,12.066H273.96a6.033,6.033,0,0,0,0-12.066Z" transform="translate(-111.069 -108.206)" fill="#fbfbfc"/>
        <path id="Trazado_2264" data-name="Trazado 2264" d="M145.476,148.6a6.033,6.033,0,0,0-8.446-.3l-19.306,18.4-8.144-8.446a6.033,6.033,0,0,0-8.446-.3,6.335,6.335,0,0,0,0,8.748L113.5,179.369a5.429,5.429,0,0,0,4.223,1.81,6.031,6.031,0,0,0,4.223-1.81l23.529-22.322a5.731,5.731,0,0,0,.348-8.1Q145.659,148.766,145.476,148.6Z" transform="translate(-69.159 -62.007)" fill="#fbfbfc"/>
        <path id="Trazado_2265" data-name="Trazado 2265" d="M273.96,172.442H204.581a6.033,6.033,0,1,0,0,12.066H273.96a6.033,6.033,0,0,0,0-12.066Z" transform="translate(-111.069 -72.878)" fill="#fbfbfc"/>
        <path id="Trazado_2266" data-name="Trazado 2266" d="M145.476,315.783a6.033,6.033,0,0,0-8.446-.3l-19.306,18.4-8.144-8.446a6.033,6.033,0,0,0-8.446-.3,6.335,6.335,0,0,0,0,8.748L113.5,346.552a5.429,5.429,0,0,0,4.223,1.81,6.031,6.031,0,0,0,4.223-1.81l23.529-22.322a5.731,5.731,0,0,0,.348-8.1Q145.659,315.95,145.476,315.783Z" transform="translate(-69.159 -132.663)" fill="#fbfbfc"/>
        <path id="Trazado_2267" data-name="Trazado 2267" d="M273.96,339.626H204.581a6.033,6.033,0,1,0,0,12.066H273.96a6.033,6.033,0,0,0,0-12.066Z" transform="translate(-111.069 -143.534)" fill="#fbfbfc"/>
      </g>
    </g>
  </g>
</svg>
