<svg xmlns="http://www.w3.org/2000/svg" viewBox="0 0 22.35 13.239">
  <defs>
    <style>
      .cls-1 {
        fill: #353435;
      }
    </style>
  </defs>
  <g id="HI1kf7_1_" transform="translate(-0.025)">
    <g id="Group_277" data-name="Group 277">
      <g id="Group_276" data-name="Group 276">
        <path id="Path_1797" data-name="Path 1797" class="cls-1" d="M11.1,0A13.05,13.05,0,0,1,21.9,5.8l.1.1c.5.7.5.7,0,1.4a12.639,12.639,0,0,1-8.1,5.6A12.332,12.332,0,0,1,3,10.3,13.433,13.433,0,0,1,.1,6.9C0,6.7,0,6.6.1,6.5A12.868,12.868,0,0,1,11.1,0Zm5.5,6.6a5.378,5.378,0,0,0-5.4-5.4,5.45,5.45,0,1,0,5.4,5.4Z"/>
        <path id="Path_1798" data-name="Path 1798" class="cls-1" d="M11.2,10.8a4.15,4.15,0,1,1,4.2-4.1A4.2,4.2,0,0,1,11.2,10.8Z"/>
      </g>
    </g>
  </g>
</svg>
