<svg xmlns="http://www.w3.org/2000/svg" width="628.32" height="571.78" viewBox="0 0 628.32 571.78">
  <g id="Grupo_3088" data-name="Grupo 3088" transform="translate(-639.001 -157.273)">
    <g id="door_1_" data-name="door (1)" transform="translate(683.949 194.859)">
      <path id="Trazado_2341" data-name="Trazado 2341" d="M525.288,516.387H445.159V178.068c0-2.511-.273-4.952-.371-7.434a9.01,9.01,0,0,0,.281-1.471,8.266,8.266,0,0,0-.477-2.348,177.1,177.1,0,0,0-42.736-104.79c-.1-.134-.118-.314-.232-.444a8.016,8.016,0,0,0-.75-.636,177.327,177.327,0,0,0-267.583,0,7.189,7.189,0,0,0-.738.624c-.114.134-.134.314-.232.448A177.109,177.109,0,0,0,89.584,166.681a8.756,8.756,0,0,0-.461,2.482,7.624,7.624,0,0,0,.293,1.418c-.106,2.5-.383,4.96-.383,7.487V516.387H8.9a8.9,8.9,0,0,0,0,17.806H525.288a8.9,8.9,0,1,0,0-17.806ZM426.3,160.262H408.312a141.662,141.662,0,0,0-28.92-69.525l13.9-11.1A159.2,159.2,0,0,1,426.3,160.262ZM427.353,284.9H409.547V178.068h17.806Zm-17.806,17.806h17.806v106.84H409.547ZM381.609,66.183,367.7,77.3a143.926,143.926,0,0,0-25.435-20.023c-.187-.086-.338-.24-.534-.318A141.247,141.247,0,0,0,276,36.073V18.267A159.585,159.585,0,0,1,381.609,66.183Zm-123.415,432.4v17.806H204.775V498.581Zm8.905-17.806H142.452V427.357H267.1a26.709,26.709,0,0,1,0,53.418ZM140.9,79.636l13.9,11.1a141.657,141.657,0,0,0-28.916,69.525H107.892A159.275,159.275,0,0,1,140.9,79.636Zm117.29-25.757V160.262H204.775V70.287A123.5,123.5,0,0,1,258.193,53.879ZM186.969,160.262H143.879a124.478,124.478,0,0,1,43.091-77.529Zm71.224,89.03V409.551H204.775V249.292ZM186.969,409.551H142.452V249.292h44.517ZM124.646,240.391V284.9H106.84V178.068h17.806ZM106.84,302.711h17.806v106.84H106.84ZM267.1,231.486H142.452V178.068H267.1a26.709,26.709,0,0,1,0,53.418Zm-8.905-213.22V36.073a141.263,141.263,0,0,0-65.714,20.912c-.2.082-.338.224-.526.322A143.929,143.929,0,0,0,166.49,77.3L152.584,66.183A159.594,159.594,0,0,1,258.193,18.267ZM106.84,427.357h17.806v89.03H106.84Zm35.612,71.224h44.517v17.806H142.452Zm204.771,17.806V373.939a8.9,8.9,0,1,0-17.806,0V516.387H276V497.692a44.517,44.517,0,0,0,0-87.253V248.4a44.517,44.517,0,0,0,0-87.253V53.879a123.478,123.478,0,0,1,53.418,16.408V249.292a8.9,8.9,0,1,0,17.806,0V82.733a124.361,124.361,0,0,1,44.517,95.335V516.387Zm62.323,0v-89.03h17.806v89.03Zm0,0"/>
      <path id="Trazado_2342" data-name="Trazado 2342" d="M338.338,274.647a8.9,8.9,0,0,0,0,12.589,17.811,17.811,0,0,1,0,25.179,18.226,18.226,0,0,1-25.179,0,17.8,17.8,0,0,1,0-25.179,8.9,8.9,0,0,0-12.589-12.589,35.612,35.612,0,1,0,50.357,0A8.9,8.9,0,0,0,338.338,274.647Zm0,0" transform="translate(12.574 11.79)"/>
      <path id="Trazado_2343" data-name="Trazado 2343" d="M160.293,190.321c-.444-.359-.888-.713-1.422-1.072a5.1,5.1,0,0,0-1.516-.8,5.3,5.3,0,0,0-1.7-.534,9.115,9.115,0,0,0-8.012,2.4,10.275,10.275,0,0,0-1.871,2.934,8.4,8.4,0,0,0,0,6.769,10.352,10.352,0,0,0,1.871,2.938,9.348,9.348,0,0,0,6.329,2.58,10.124,10.124,0,0,0,1.683-.179,5.3,5.3,0,0,0,1.7-.534,5.1,5.1,0,0,0,1.516-.8c.526-.359.978-.713,1.422-1.068a10.352,10.352,0,0,0,1.871-2.938,8.4,8.4,0,0,0,0-6.769A10.275,10.275,0,0,0,160.293,190.321Zm0,0" transform="translate(6.286 8.137)"/>
      <path id="Trazado_2344" data-name="Trazado 2344" d="M194.426,190.321c-.444-.359-.888-.713-1.422-1.072a5.081,5.081,0,0,0-1.512-.8,5.321,5.321,0,0,0-1.7-.534,9.119,9.119,0,0,0-8.012,2.4,10.275,10.275,0,0,0-1.871,2.934,8.432,8.432,0,0,0,0,6.769,10.352,10.352,0,0,0,1.871,2.938,9.348,9.348,0,0,0,6.329,2.58,10.124,10.124,0,0,0,1.683-.179,5.322,5.322,0,0,0,1.7-.534,5.08,5.08,0,0,0,1.512-.8c.526-.359.978-.713,1.422-1.068a10.352,10.352,0,0,0,1.871-2.938,8.4,8.4,0,0,0,0-6.769A10.275,10.275,0,0,0,194.426,190.321Zm0,0" transform="translate(7.766 8.137)"/>
      <path id="Trazado_2345" data-name="Trazado 2345" d="M228.562,190.321c-.448-.359-.893-.713-1.426-1.072a5.081,5.081,0,0,0-1.512-.8,5.321,5.321,0,0,0-1.7-.534,9.119,9.119,0,0,0-8.012,2.4,10.262,10.262,0,0,0-1.867,2.934,8.4,8.4,0,0,0,0,6.769,10.339,10.339,0,0,0,1.867,2.938,9.358,9.358,0,0,0,6.333,2.58,10.122,10.122,0,0,0,1.679-.179,5.322,5.322,0,0,0,1.7-.534,5.081,5.081,0,0,0,1.512-.8c.526-.359.978-.713,1.426-1.068a10.429,10.429,0,0,0,1.867-2.938,8.4,8.4,0,0,0,0-6.769A10.35,10.35,0,0,0,228.562,190.321Zm0,0" transform="translate(9.245 8.137)"/>
      <path id="Trazado_2346" data-name="Trazado 2346" d="M262.7,190.321c-.448-.359-.893-.713-1.426-1.072a5.081,5.081,0,0,0-1.512-.8,5.331,5.331,0,0,0-1.7-.534,9.123,9.123,0,0,0-8.017,2.4,10.351,10.351,0,0,0-1.867,2.934,8.4,8.4,0,0,0,0,6.769,10.43,10.43,0,0,0,1.867,2.938,9.365,9.365,0,0,0,6.333,2.58,10.217,10.217,0,0,0,1.683-.179,5.331,5.331,0,0,0,1.7-.534,5.081,5.081,0,0,0,1.512-.8c.526-.359.978-.713,1.426-1.068a10.339,10.339,0,0,0,1.867-2.938,8.367,8.367,0,0,0,0-6.769A10.262,10.262,0,0,0,262.7,190.321Zm0,0" transform="translate(10.724 8.137)"/>
      <path id="Trazado_2347" data-name="Trazado 2347" d="M160.293,429.227c-.444-.355-.888-.713-1.422-1.068a5.114,5.114,0,0,0-1.516-.8,5.51,5.51,0,0,0-1.7-.534,9.127,9.127,0,0,0-8.012,2.4,10.239,10.239,0,0,0-1.871,2.938,8.39,8.39,0,0,0,0,6.765,10.24,10.24,0,0,0,1.871,2.938,9.342,9.342,0,0,0,6.329,2.608,10.569,10.569,0,0,0,1.683-.179,5.3,5.3,0,0,0,1.7-.534,5.1,5.1,0,0,0,1.516-.8c.526-.359.978-.713,1.422-1.068a10.352,10.352,0,0,0,1.871-2.938,8.4,8.4,0,0,0,0-6.77A10.187,10.187,0,0,0,160.293,429.227Zm0,0" transform="translate(6.286 18.491)"/>
      <path id="Trazado_2348" data-name="Trazado 2348" d="M194.426,429.227c-.444-.355-.888-.713-1.422-1.068a5.093,5.093,0,0,0-1.512-.8,5.534,5.534,0,0,0-1.7-.534,9.13,9.13,0,0,0-8.012,2.4,10.239,10.239,0,0,0-1.871,2.938,8.423,8.423,0,0,0,0,6.765,10.24,10.24,0,0,0,1.871,2.938,9.342,9.342,0,0,0,6.329,2.608,10.569,10.569,0,0,0,1.683-.179,5.321,5.321,0,0,0,1.7-.534,5.081,5.081,0,0,0,1.512-.8c.526-.359.978-.713,1.422-1.068a10.352,10.352,0,0,0,1.871-2.938,8.4,8.4,0,0,0,0-6.77A10.187,10.187,0,0,0,194.426,429.227Zm0,0" transform="translate(7.766 18.491)"/>
      <path id="Trazado_2349" data-name="Trazado 2349" d="M228.562,429.227c-.448-.355-.893-.713-1.426-1.068a5.093,5.093,0,0,0-1.512-.8,5.534,5.534,0,0,0-1.7-.534,9.13,9.13,0,0,0-8.012,2.4,10.226,10.226,0,0,0-1.867,2.938,8.389,8.389,0,0,0,0,6.765,10.227,10.227,0,0,0,1.867,2.938,9.344,9.344,0,0,0,6.333,2.608,10.569,10.569,0,0,0,1.679-.179,5.321,5.321,0,0,0,1.7-.534,5.081,5.081,0,0,0,1.512-.8c.526-.359.978-.713,1.426-1.068a10.429,10.429,0,0,0,1.867-2.938,8.4,8.4,0,0,0,0-6.77A10.26,10.26,0,0,0,228.562,429.227Zm0,0" transform="translate(9.245 18.491)"/>
      <path id="Trazado_2350" data-name="Trazado 2350" d="M262.7,429.227c-.448-.355-.893-.713-1.426-1.068a5.093,5.093,0,0,0-1.512-.8,5.545,5.545,0,0,0-1.7-.534,9.135,9.135,0,0,0-8.017,2.4,10.315,10.315,0,0,0-1.867,2.938,8.39,8.39,0,0,0,0,6.765,10.316,10.316,0,0,0,1.867,2.938,9.36,9.36,0,0,0,6.333,2.608,10.671,10.671,0,0,0,1.683-.179,5.33,5.33,0,0,0,1.7-.534,5.081,5.081,0,0,0,1.512-.8c.526-.359.978-.713,1.426-1.068a10.339,10.339,0,0,0,1.867-2.938,8.367,8.367,0,0,0,0-6.77A10.261,10.261,0,0,0,262.7,429.227Zm0,0" transform="translate(10.724 18.491)"/>
    </g>
    <g id="warning-sign" transform="translate(1020.773 157.273)">
      <path id="Trazado_2351" data-name="Trazado 2351" d="M215.387,200.666a18.569,18.569,0,0,0,18.5-17.015l12.55-149.884a31.16,31.16,0,1,0-62.1,0l12.55,149.884A18.57,18.57,0,0,0,215.387,200.666Z"/>
      <path id="Trazado_2352" data-name="Trazado 2352" d="M225.677,410.908A20.224,20.224,0,1,0,245.9,431.132,20.222,20.222,0,0,0,225.677,410.908Z" transform="translate(-10.29 -199.211)"/>
    </g>
    <g id="warning-sign-2" data-name="warning-sign" transform="translate(885.548 641.418) rotate(180)">
      <path id="Trazado_2351-2" data-name="Trazado 2351" d="M215.387,200.666a18.569,18.569,0,0,0,18.5-17.015l12.55-149.884a31.16,31.16,0,1,0-62.1,0l12.55,149.884A18.57,18.57,0,0,0,215.387,200.666Z"/>
      <path id="Trazado_2352-2" data-name="Trazado 2352" d="M225.677,410.908A20.224,20.224,0,1,0,245.9,431.132,20.222,20.222,0,0,0,225.677,410.908Z" transform="translate(-10.29 -199.211)"/>
    </g>
  </g>
</svg>
