<svg xmlns="http://www.w3.org/2000/svg" width="2072.82" height="1071.309" viewBox="0 0 2072.82 1071.309">
  <g id="Grupo_3089" data-name="Grupo 3089" transform="translate(71.718 -111.079)">
    <path id="Trazado_1884" data-name="Trazado 1884" d="M58.165,0h-.347a2.7,2.7,0,0,0-1.089.248L1.612,25.355A2.606,2.606,0,0,0,.126,28.326,2.645,2.645,0,0,0,2.7,30.455c.446,0,45.064.941,64.873,40.508a9.732,9.732,0,0,0,10.449,5l46.005-11.093a6.943,6.943,0,0,0,4.853-3.863,6.742,6.742,0,0,0-.3-5.992C120.512,40.211,97.633,5.15,58.165,0Zm65.764,58.881a1.814,1.814,0,0,1-1.238.842L76.735,70.815a3.343,3.343,0,0,1-.693.1,4.363,4.363,0,0,1-3.714-2.278c-15.352-30.7-44.47-39.765-59.722-42.39l45.609-20.8c36.6,5.15,58.039,38.131,65.566,52.146A1.414,1.414,0,0,1,123.929,58.881Z" transform="translate(734.639 414)"/>
    <path id="Trazado_1891" data-name="Trazado 1891" d="M52.688,0h-.314a2.444,2.444,0,0,0-.987.224L1.465,22.965A2.36,2.36,0,0,0,.12,25.656a2.4,2.4,0,0,0,2.332,1.929c.4,0,40.816.852,58.758,36.69a8.814,8.814,0,0,0,9.464,4.53l41.669-10.047a6.289,6.289,0,0,0,4.4-3.5,6.106,6.106,0,0,0-.269-5.427C109.158,36.421,88.436,4.665,52.688,0Zm59.565,53.331a1.643,1.643,0,0,1-1.121.763L69.508,64.14a3.028,3.028,0,0,1-.628.09,3.952,3.952,0,0,1-3.364-2.063c-13.9-27.809-40.278-36.017-54.093-38.394L52.732,4.934C85.879,9.6,105.3,39.471,112.118,52.164A1.281,1.281,0,0,1,112.253,53.331Z" transform="translate(1437.639 790)"/>
    <g id="Grupo_1700" data-name="Grupo 1700">
      <ellipse id="Elipse_482" data-name="Elipse 482" cx="205.5" cy="36.5" rx="205.5" ry="36.5" transform="translate(755 665)" fill="#d6d6d6" opacity="0.547"/>
      <g id="Grupo_1695" data-name="Grupo 1695" transform="translate(800 190)">
        <path id="Trazado_1879" data-name="Trazado 1879" d="M196,526.1h-8c-19-7.9-22.9-13.8-22.9-34.7V299.8H155V306q0,95.25.1,190.4c0,11.1-4.1,19.8-13.5,25.6-2.9,1.8-6.3,2.8-9.5,4.1h-8c-18.8-6.7-23.8-13.8-23.8-34.1V163.7c0-1.4-.1-2.9-.2-4.3a9.093,9.093,0,0,0-2.1,4.3l-6,36.9c-1.4,8.7-5.4,15.3-14.4,17.9-7.7,2.2-15.2-.6-20.8-8.2a60.135,60.135,0,0,1-4.9-8.1c-3.5-6.8-6.5-13.9-10.3-20.5-6.1-10.7-12.5-21.1-19.1-31.5-1.1-1.8-3.4-3.8-5.4-4-8.8-1.1-14-6.1-17.1-14v-8c6.9-13.1,15.7-16.5,29.6-11.4,8.9,3.3,15.7,9.3,21.4,16.6,4.9,6.2,9.2,12.9,14.1,19.7a54.062,54.062,0,0,1,1.9-5.3c4.7-8.9,8.4-18.6,14.4-26.5,11.8-15.8,34.4-18.2,49-7.7,17.8,12.9,42.4,11.9,60.6-.7,10.1-7,20.8-7.6,31.8-3.3,13.9,5.4,21.4,16.9,27,29.9,1.9,4.4,3.4,8.9,5.3,13.9,3-4.7,5.6-8.9,8.4-13,6.5-9.2,13.6-17.7,24.1-22.6,14.6-6.8,25.1-3.5,32.4,10.3v8c-2.5,6-5.8,11.8-12.7,12.8-6.8,1-10.8,5-13.8,10.2-6.3,10.9-12.3,22-18.4,33.1-3.9,7.1-7.2,14.7-11.6,21.5-5.1,7.9-12.9,10.8-20.6,8.8-8.3-2.1-13.7-8.6-14.9-18-.7-5.4-1.1-10.9-2.1-16.3-1.4-8.4-3.2-16.7-4.8-25.1-.4.1-.8.1-1.3.2-.1,1.4-.2,2.9-.2,4.3V495.9c0,10.6-3.4,19.4-12.4,25.2C203.9,523.5,199.8,524.5,196,526.1Z"/>
        <path id="Trazado_1880" data-name="Trazado 1880" d="M165,0c6.5,2.3,13.5,3.7,19.5,7,20.6,11.2,29.8,35.5,22.7,57.8-7.3,22.9-28.8,36.7-53.4,34.2-22.2-2.2-40.6-21-43-43.9A49.3,49.3,0,0,1,151.7,1,20.739,20.739,0,0,0,155,0Z"/>
      </g>
      <path id="Trazado_1881" data-name="Trazado 1881" d="M103.284,110.569h.5a3.915,3.915,0,0,0,1.58-.359l79.95-36.419a3.78,3.78,0,0,0,2.155-4.31,3.837,3.837,0,0,0-3.735-3.089c-.646,0-65.368-1.365-94.1-58.759-2.73-5.387-9.41-8.62-15.157-7.255L7.818,16.4A10.071,10.071,0,0,0,.779,22a9.779,9.779,0,0,0,.431,8.692C12.847,52.312,45.961,103.1,103.284,110.569ZM7.89,25.232a2.631,2.631,0,0,1,1.8-1.221L76.347,7.92a4.851,4.851,0,0,1,1.006-.144,6.329,6.329,0,0,1,5.387,3.3c22.268,44.464,64.506,57.61,86.63,61.489l-66.158,30.17C50.128,95.268,19.024,47.428,8.106,27.1A2.114,2.114,0,0,1,7.89,25.232Z" transform="translate(1091.041 440.936)" opacity="0.813"/>
      <path id="Trazado_1888" data-name="Trazado 1888" d="M146.317,156.592h.712a5.545,5.545,0,0,0,2.238-.509L262.516,104.5a5.354,5.354,0,0,0,3.053-6.105,5.435,5.435,0,0,0-5.291-4.375c-.916,0-92.593-1.933-133.293-83.232C123.118,3.153,113.656-1.426,105.516.508L11.091,23.2A14.266,14.266,0,0,0,1.12,31.134,13.853,13.853,0,0,0,1.73,43.446C18.214,74.073,65.121,146.01,146.317,156.592ZM11.193,35.713a3.726,3.726,0,0,1,2.544-1.73l94.424-22.792a6.871,6.871,0,0,1,1.424-.2,8.965,8.965,0,0,1,7.631,4.681c31.543,62.983,91.372,81.6,122.711,87.1L146.216,145.5C71.022,134.92,26.965,67.154,11.5,38.359A3,3,0,0,1,11.193,35.713Z" transform="translate(1614.041 659.936)" opacity="0.813"/>
      <path id="Trazado_1882" data-name="Trazado 1882" d="M277.444,45.779a14.561,14.561,0,0,0,.642-12.942A14.737,14.737,0,0,0,267.6,24.5L168.349.43c-8.556-2.032-18.5,2.781-22.568,10.8C103,96.69,6.739,98.829,5.67,98.829a5.781,5.781,0,0,0-2.353,11.016l119.042,54.227a6.259,6.259,0,0,0,2.353.535h.749C210.811,153.484,260.224,77.866,277.444,45.779Zm-10.161-5.455c-16.257,30.268-62.569,101.5-141.609,112.624L27.168,108.028C60.11,102.252,123,82.679,156.156,16.474a9.29,9.29,0,0,1,8.022-4.92,6.312,6.312,0,0,1,1.5.214l99.362,23.958a3.917,3.917,0,0,1,2.674,1.818A3.559,3.559,0,0,1,267.283,40.325Z" transform="translate(435.741 599.423)"/>
      <path id="Trazado_1886" data-name="Trazado 1886" d="M277.444,45.779a14.561,14.561,0,0,0,.642-12.942A14.737,14.737,0,0,0,267.6,24.5L168.349.43c-8.556-2.032-18.5,2.781-22.568,10.8C103,96.69,6.739,98.829,5.67,98.829a5.781,5.781,0,0,0-2.353,11.016l119.042,54.227a6.259,6.259,0,0,0,2.353.535h.749C210.811,153.484,260.224,77.866,277.444,45.779Zm-10.161-5.455c-16.257,30.268-62.569,101.5-141.609,112.624L27.168,108.028C60.11,102.252,123,82.679,156.156,16.474a9.29,9.29,0,0,1,8.022-4.92,6.312,6.312,0,0,1,1.5.214l99.362,23.958a3.917,3.917,0,0,1,2.674,1.818A3.559,3.559,0,0,1,267.283,40.325Z" transform="translate(192.601 111.116) rotate(25)"/>
      <g id="Grupo_1696" data-name="Grupo 1696" transform="translate(603.63 304.904) rotate(71)">
        <g id="Layer_8_1_">
          <path id="Trazado_1883" data-name="Trazado 1883" d="M165.335,0H4.413A4.44,4.44,0,0,0,0,4.413v168.75a4.44,4.44,0,0,0,4.413,4.413H129.4a4.254,4.254,0,0,0,2.995-1.208l35.988-33.519a4.421,4.421,0,0,0,1.419-3.2V4.413A4.485,4.485,0,0,0,165.335,0ZM8.826,8.826h152.1V131.186h-35.83a4.44,4.44,0,0,0-4.413,4.413V168.75H8.826V8.826Zm120.731,158.19V140.064h28.948Z"/>
        </g>
      </g>
      <g id="Grupo_1697" data-name="Grupo 1697" transform="translate(1437.664 759.599) rotate(-133)">
        <g id="Layer_8_1_2" data-name="Layer_8_1_">
          <path id="Trazado_1883-2" data-name="Trazado 1883" d="M172.66,0H4.609A4.636,4.636,0,0,0,0,4.609V180.835a4.636,4.636,0,0,0,4.609,4.609H135.132a4.443,4.443,0,0,0,3.127-1.262l37.582-35a4.617,4.617,0,0,0,1.481-3.347V4.609A4.684,4.684,0,0,0,172.66,0ZM9.217,9.217H168.051V137H130.633a4.636,4.636,0,0,0-4.609,4.609v34.62H9.217V9.217Zm126.08,165.2V146.27h30.231Z"/>
        </g>
      </g>
      <g id="Grupo_1699" data-name="Grupo 1699" transform="matrix(-0.891, 0.454, -0.454, -0.891, 2001.102, 1101.884)">
        <g id="Layer_8_1_3" data-name="Layer_8_1_">
          <path id="Trazado_1883-3" data-name="Trazado 1883" d="M172.66,0H4.609A4.636,4.636,0,0,0,0,4.609V180.835a4.636,4.636,0,0,0,4.609,4.609H135.132a4.443,4.443,0,0,0,3.127-1.262l37.582-35a4.617,4.617,0,0,0,1.481-3.347V4.609A4.684,4.684,0,0,0,172.66,0ZM9.217,9.217H168.051V137H130.633a4.636,4.636,0,0,0-4.609,4.609v34.62H9.217V9.217Zm126.08,165.2V146.27h30.231Z"/>
        </g>
      </g>
      <g id="Grupo_1698" data-name="Grupo 1698" transform="matrix(0.839, -0.545, 0.545, 0.839, -71.718, 182.843)">
        <g id="Layer_8_1_4" data-name="Layer_8_1_">
          <path id="Trazado_1883-4" data-name="Trazado 1883" d="M126.779,0H3.384A3.4,3.4,0,0,0,0,3.384v129.4a3.4,3.4,0,0,0,3.384,3.384H99.223a3.262,3.262,0,0,0,2.3-.927l27.6-25.7a3.39,3.39,0,0,0,1.088-2.457V3.384A3.439,3.439,0,0,0,126.779,0ZM6.768,6.768H123.395v93.825H95.92a3.4,3.4,0,0,0-3.384,3.384V129.4H6.768V6.768Zm92.576,121.3V107.4h22.2Z"/>
        </g>
      </g>
      <path id="Trazado_1887" data-name="Trazado 1887" d="M58.165,0h-.347a2.7,2.7,0,0,0-1.089.248L1.612,25.355A2.606,2.606,0,0,0,.126,28.326,2.645,2.645,0,0,0,2.7,30.455c.446,0,45.064.941,64.873,40.508a9.732,9.732,0,0,0,10.449,5l46.005-11.093a6.943,6.943,0,0,0,4.853-3.863,6.742,6.742,0,0,0-.3-5.992C120.512,40.211,97.633,5.15,58.165,0Zm65.764,58.881a1.814,1.814,0,0,1-1.238.842L76.735,70.815a3.343,3.343,0,0,1-.693.1,4.363,4.363,0,0,1-3.714-2.278c-15.352-30.7-44.47-39.765-59.722-42.39l45.609-20.8c36.6,5.15,58.039,38.131,65.566,52.146A1.414,1.414,0,0,1,123.929,58.881Z" transform="translate(1149.639 207)"/>
      <path id="Trazado_1889" data-name="Trazado 1889" d="M98.593,0h-.588a4.576,4.576,0,0,0-1.847.42L2.7,42.994A4.419,4.419,0,0,0,.177,48.033a4.485,4.485,0,0,0,4.367,3.611c.756,0,76.415,1.6,110,68.69,3.191,6.3,11,10.077,17.718,8.481L210.277,110a11.773,11.773,0,0,0,8.229-6.55,11.432,11.432,0,0,0-.5-10.161C204.315,68.186,165.519,8.733,98.593,0ZM210.109,99.844a3.075,3.075,0,0,1-2.1,1.428l-77.927,18.81a5.67,5.67,0,0,1-1.176.168,7.4,7.4,0,0,1-6.3-3.863C96.578,64.323,47.2,48.956,21.338,44.506L98.677,9.237c62.056,8.733,98.416,64.659,111.18,88.424A2.4,2.4,0,0,1,210.109,99.844Z" transform="translate(111.639 361)"/>
      <path id="Trazado_1890" data-name="Trazado 1890" d="M98.593,0h-.588a4.576,4.576,0,0,0-1.847.42L2.7,42.994A4.419,4.419,0,0,0,.177,48.033a4.485,4.485,0,0,0,4.367,3.611c.756,0,76.415,1.6,110,68.69,3.191,6.3,11,10.077,17.718,8.481L210.277,110a11.773,11.773,0,0,0,8.229-6.55,11.432,11.432,0,0,0-.5-10.161C204.315,68.186,165.519,8.733,98.593,0ZM210.109,99.844a3.075,3.075,0,0,1-2.1,1.428l-77.927,18.81a5.67,5.67,0,0,1-1.176.168,7.4,7.4,0,0,1-6.3-3.863C96.578,64.323,47.2,48.956,21.338,44.506L98.677,9.237c62.056,8.733,98.416,64.659,111.18,88.424A2.4,2.4,0,0,1,210.109,99.844Z" transform="translate(1573.639 841)"/>
    </g>
  </g>
</svg>
